<?xml version="1.0" encoding="utf-8"?>
<!-- Generator: Adobe Illustrator 25.2.1, SVG Export Plug-In . SVG Version: 6.00 Build 0)  -->
<svg version="1.1" id="レイヤー_1" xmlns="http://www.w3.org/2000/svg" xmlns:xlink="http://www.w3.org/1999/xlink" x="0px"
	 y="0px" width="21px" height="21px" viewBox="0 0 21 21" style="enable-background:new 0 0 21 21;" xml:space="preserve">
<style type="text/css">
	.st0{fill:#FFFFFF;}
</style>
<circle cx="10.5" cy="10.5" r="10.5"/>
<path class="st0" d="M10.2,4.5c-2.7,0-5,2.2-5,5c0,1.1,0.4,2.2,1,3l3.9,5l3.9-5c0.7-0.9,1-1.9,1-3C15.2,6.8,12.9,4.5,10.2,4.5z
	 M10.2,12.9c-1.9,0-3.4-1.5-3.4-3.4s1.5-3.4,3.4-3.4c1.9,0,3.4,1.5,3.4,3.4S12.1,12.9,10.2,12.9z M10.2,7.4c-1.1,0-2.1,0.9-2.1,2.1
	s0.9,2.1,2.1,2.1s2.1-0.9,2.1-2.1S11.3,7.4,10.2,7.4z"/>
</svg>
