<?xml version="1.0" encoding="UTF-8"?>
<!-- Do not edit this file with editors other than draw.io -->
<!DOCTYPE svg PUBLIC "-//W3C//DTD SVG 1.1//EN" "http://www.w3.org/Graphics/SVG/1.1/DTD/svg11.dtd">
<svg xmlns="http://www.w3.org/2000/svg" xmlns:xlink="http://www.w3.org/1999/xlink" version="1.1" width="186px" height="148px" viewBox="-0.5 -0.5 186 148" content="&lt;mxfile host=&quot;app.diagrams.net&quot; modified=&quot;2024-02-08T12:38:34.413Z&quot; agent=&quot;Mozilla/5.0 (Windows NT 10.0; Win64; x64) AppleWebKit/537.36 (KHTML, like Gecko) Chrome/121.0.0.0 Safari/537.36&quot; etag=&quot;LA8F4tAhpbMc4JkD2X84&quot; version=&quot;23.1.1&quot; type=&quot;device&quot;&gt;&#10;  &lt;diagram name=&quot;ページ1&quot; id=&quot;manP-iaD0kOVQRL9t2yS&quot;&gt;&#10;    &lt;mxGraphModel dx=&quot;1434&quot; dy=&quot;758&quot; grid=&quot;1&quot; gridSize=&quot;10&quot; guides=&quot;1&quot; tooltips=&quot;1&quot; connect=&quot;1&quot; arrows=&quot;1&quot; fold=&quot;1&quot; page=&quot;1&quot; pageScale=&quot;1&quot; pageWidth=&quot;827&quot; pageHeight=&quot;1169&quot; background=&quot;none&quot; math=&quot;0&quot; shadow=&quot;0&quot;&gt;&#10;      &lt;root&gt;&#10;        &lt;mxCell id=&quot;0&quot; /&gt;&#10;        &lt;mxCell id=&quot;1&quot; parent=&quot;0&quot; /&gt;&#10;        &lt;mxCell id=&quot;LHSaYbx4L0--XE4GXeVn-3&quot; value=&quot;&quot; style=&quot;verticalLabelPosition=bottom;shadow=0;dashed=0;align=center;html=1;verticalAlign=top;shape=mxgraph.electrical.transmission.4_line_bus;strokeWidth=7;fillColor=default;strokeColor=#0A0A0A;fontSize=7;spacing=2;sketch=1;curveFitting=1;jiggle=2;&quot; vertex=&quot;1&quot; parent=&quot;1&quot;&gt;&#10;          &lt;mxGeometry x=&quot;336&quot; y=&quot;293&quot; width=&quot;130&quot; height=&quot;60&quot; as=&quot;geometry&quot; /&gt;&#10;        &lt;/mxCell&gt;&#10;        &lt;mxCell id=&quot;LHSaYbx4L0--XE4GXeVn-5&quot; value=&quot;&quot; style=&quot;line;strokeWidth=7;html=1;strokeColor=#0A0A0A;sketch=1;curveFitting=1;jiggle=2;verticalAlign=top;fontSize=14;&quot; vertex=&quot;1&quot; parent=&quot;1&quot;&gt;&#10;          &lt;mxGeometry x=&quot;313&quot; y=&quot;369&quot; width=&quot;179&quot; height=&quot;10&quot; as=&quot;geometry&quot; /&gt;&#10;        &lt;/mxCell&gt;&#10;        &lt;mxCell id=&quot;LHSaYbx4L0--XE4GXeVn-7&quot; value=&quot;&quot; style=&quot;verticalLabelPosition=bottom;verticalAlign=top;html=1;shape=mxgraph.basic.banner;strokeWidth=7;strokeColor=#0A0A0A;sketch=1;curveFitting=1;jiggle=2;&quot; vertex=&quot;1&quot; parent=&quot;1&quot;&gt;&#10;          &lt;mxGeometry x=&quot;350&quot; y=&quot;390&quot; width=&quot;100&quot; height=&quot;44&quot; as=&quot;geometry&quot; /&gt;&#10;        &lt;/mxCell&gt;&#10;      &lt;/root&gt;&#10;    &lt;/mxGraphModel&gt;&#10;  &lt;/diagram&gt;&#10;&lt;/mxfile&gt;&#10;"><defs/><g><path d="M 26 3 L 156 3 M 26 63 L 156 63 M 26 23 L 156 23 M 26 43 L 156 43" fill="none" stroke="none" pointer-events="all"/><path d="M 26 3 M 26 3 C 70.79 2.94 125.83 9.11 156 3 M 26 3 C 73.35 -0.45 116.13 -0.6 156 3 M 26 63 M 26 63 C 76.15 63.25 125.44 64.38 156 63 M 26 63 C 69.36 65.92 113.85 63.71 156 63 M 26 23 M 26 23 C 69.66 26.85 112.8 27.12 156 23 M 26 23 C 52.71 27.09 78.95 26.57 156 23 M 26 43 M 26 43 C 59.69 46.36 85.31 41.59 156 43 M 26 43 C 57.83 40.24 92.82 42.6 156 43" fill="none" stroke="#0a0a0a" stroke-width="7" stroke-linejoin="round" stroke-linecap="round" stroke-miterlimit="10" pointer-events="all"/><path d="M 3 84 L 182 84" fill="none" stroke="none" pointer-events="all"/><path d="M 3 84 M 3 84 C 69.53 87.31 138.18 86.28 182 84 M 3 84 C 54.47 83.56 110.88 84.28 182 84" fill="none" stroke="#0a0a0a" stroke-width="7" stroke-linejoin="round" stroke-linecap="round" stroke-miterlimit="10" pointer-events="all"/><path d="M 40 144 L 79.58 144 C 80.27 144 80.94 143.77 81.42 143.36 C 81.91 142.94 82.19 142.38 82.19 141.8 L 82.19 135.2 L 97.81 135.2 L 97.81 141.8 C 97.81 142.38 98.09 142.94 98.58 143.36 C 99.06 143.77 99.73 144 100.42 144 L 140 144 L 126.46 126.4 L 140 108.8 L 113.44 108.8 L 113.44 102.2 C 113.44 101.62 113.16 101.06 112.67 100.64 C 112.19 100.23 111.52 100 110.83 100 L 69.17 100 C 68.48 100 67.81 100.23 67.33 100.64 C 66.84 101.06 66.56 101.62 66.56 102.2 L 66.56 108.8 L 40 108.8 L 53.54 126.4 Z" fill="none" stroke="none" pointer-events="all"/><path d="M 82.19 141.8 C 82.19 141.22 81.91 140.66 81.42 140.24 C 80.94 139.83 80.27 139.6 79.58 139.6 L 69.17 139.6 C 68.24 139.6 67.38 139.18 66.91 138.5 C 66.45 137.82 66.45 136.98 66.91 136.3 C 67.38 135.62 68.24 135.2 69.17 135.2 L 110.83 135.2 C 112.27 135.2 113.44 136.18 113.44 137.4 C 113.44 138.62 112.27 139.6 110.83 139.6 L 100.42 139.6 C 99.73 139.6 99.06 139.83 98.58 140.24 C 98.09 140.66 97.81 141.22 97.81 141.8 M 66.56 137.4 L 66.56 108.8 M 113.44 137.4 L 113.44 108.8" fill="none" stroke="none" pointer-events="all"/><path d="M 42.95 145.42 L 78.86 147.07 L 79.27 141.92 L 79.03 132.89 L 100.7 131.64 L 95.52 141.93 L 100.77 147.33 L 140.77 142.94 L 128.71 124.32 L 143.73 105.65 L 115.63 106.35 L 112.5 100.97 L 113.4 99.73 L 71.28 99.81 L 69.18 104.35 L 65.54 106.07 L 42.36 107.5 L 52.16 129.02 L 38.66 143.46" fill="rgb(255, 255, 255)" stroke="none" pointer-events="all"/><path d="M 40 144 M 40 144 C 51.4 140.62 59.29 144.9 79.58 144 M 40 144 C 52.47 143.74 62.56 143.06 79.58 144 M 79.58 144 C 78.94 140.66 77.15 142.61 81.42 143.36 M 79.58 144 C 83.53 144.18 78.34 142.84 81.42 143.36 M 81.42 143.36 C 79.6 143.19 81.56 139.44 82.19 141.8 M 81.42 143.36 C 79.34 143.32 82.81 139.42 82.19 141.8 M 82.19 141.8 C 81.88 141.33 83.03 138.81 82.19 135.2 M 82.19 141.8 C 81.88 139.76 82.46 137.47 82.19 135.2 M 82.19 135.2 C 85.43 135.72 91.69 135.2 97.81 135.2 M 82.19 135.2 C 86.04 133.89 91.28 136.78 97.81 135.2 M 97.81 135.2 C 98.36 136.24 96.43 139.53 97.81 141.8 M 97.81 135.2 C 97.67 137.92 97.4 139.27 97.81 141.8 M 97.81 141.8 C 96.51 139.17 95.7 140.08 98.58 143.36 M 97.81 141.8 C 100.71 142.32 95.66 145.95 98.58 143.36 M 98.58 143.36 C 97.61 141.2 95.91 143.19 100.42 144 M 98.58 143.36 C 96.3 140.13 103.41 140.63 100.42 144 M 100.42 144 C 112.25 146.39 117.62 142.71 140 144 M 100.42 144 C 108.82 144.96 120.5 142.52 140 144 M 140 144 C 139.23 141.16 133.95 134.87 126.46 126.4 M 140 144 C 135.22 139.39 132.14 135.32 126.46 126.4 M 126.46 126.4 C 130.21 120.32 132.51 117.43 140 108.8 M 126.46 126.4 C 131.75 121.55 134.69 116.72 140 108.8 M 140 108.8 C 134.19 109.76 124.79 105.23 113.44 108.8 M 140 108.8 C 131.02 108.9 124.25 107.65 113.44 108.8 M 113.44 108.8 C 113.24 106.42 113.2 104.5 113.44 102.2 M 113.44 108.8 C 113.67 106.54 113.47 106.02 113.44 102.2 M 113.44 102.2 C 114.54 105.2 113.17 98.85 112.67 100.64 M 113.44 102.2 C 113.28 103.43 115.49 98.57 112.67 100.64 M 112.67 100.64 C 112.6 96.47 115.39 100.85 110.83 100 M 112.67 100.64 C 110.51 97.62 114.1 102.97 110.83 100 M 110.83 100 C 96.3 98.04 82.55 100.7 69.17 100 M 110.83 100 C 99.12 99.75 85.29 99.27 69.17 100 M 69.17 100 C 65.72 99.74 66.01 103.61 67.33 100.64 M 69.17 100 C 67.38 104.06 71 96.97 67.33 100.64 M 67.33 100.64 C 67.41 99.42 64.72 103.59 66.56 102.2 M 67.33 100.64 C 64.77 100.2 69.61 98.69 66.56 102.2 M 66.56 102.2 C 67.81 103.83 67.47 105.92 66.56 108.8 M 66.56 102.2 C 66.25 104.68 66.59 107.63 66.56 108.8 M 66.56 108.8 C 55.99 111.01 47.62 106.38 40 108.8 M 66.56 108.8 C 56.57 110.41 49.24 109.77 40 108.8 M 40 108.8 C 46.74 113.21 47.75 120.42 53.54 126.4 M 40 108.8 C 43.06 113.85 47.97 118.73 53.54 126.4 M 53.54 126.4 C 50.26 136.4 42.55 136.2 40 144 M 53.54 126.4 C 49 131.08 47.7 134.06 40 144" fill="none" stroke="#0a0a0a" stroke-width="7" stroke-linejoin="round" stroke-linecap="round" stroke-miterlimit="10" pointer-events="all"/><path d="M 82.19 141.8 M 82.19 141.8 C 85.14 142.64 81.19 143.73 81.42 140.24 M 82.19 141.8 C 78.83 141.36 78.27 138.01 81.42 140.24 M 81.42 140.24 C 83.83 136.27 77.98 139.73 79.58 139.6 M 81.42 140.24 C 81.34 143.65 81.16 138.38 79.58 139.6 M 79.58 139.6 C 74.23 140.93 70.89 139.31 69.17 139.6 M 79.58 139.6 C 77.33 139.54 74.66 140.14 69.17 139.6 M 69.17 139.6 C 67.22 136.87 69.74 137.88 66.91 138.5 M 69.17 139.6 C 66.66 142.62 65.84 138.56 66.91 138.5 M 66.91 138.5 C 63.24 135.36 63.61 139.68 66.91 136.3 M 66.91 138.5 C 61.91 139.99 66.83 135.66 66.91 136.3 M 66.91 136.3 C 69.16 133.32 71.71 133.77 69.17 135.2 M 66.91 136.3 C 69.87 132.41 66.71 131.36 69.17 135.2 M 69.17 135.2 C 77.88 132.35 85.47 132.3 110.83 135.2 M 69.17 135.2 C 80.81 135.98 94.96 134.53 110.83 135.2 M 110.83 135.2 C 110.68 139.17 116.95 135.64 113.44 137.4 M 110.83 135.2 C 116.62 138.57 114.99 136.78 113.44 137.4 M 113.44 137.4 C 112.3 135.78 110.19 139.75 110.83 139.6 M 113.44 137.4 C 115.08 137.25 116.79 135.09 110.83 139.6 M 110.83 139.6 C 105.21 139.75 102.37 140.2 100.42 139.6 M 110.83 139.6 C 108.99 140.4 104.91 138.58 100.42 139.6 M 100.42 139.6 C 98.26 141.58 96.89 135.96 98.58 140.24 M 100.42 139.6 C 102.6 141.84 99.37 144.01 98.58 140.24 M 98.58 140.24 C 97.18 143.19 95.24 137.98 97.81 141.8 M 98.58 140.24 C 96.6 136.97 95.06 137.93 97.81 141.8 M 66.56 137.4 M 66.56 137.4 C 69.18 125.57 64 112.81 66.56 108.8 M 66.56 137.4 C 68.51 127.93 65.55 121.38 66.56 108.8 M 113.44 137.4 M 113.44 137.4 C 111.86 128.31 111.52 125.62 113.44 108.8 M 113.44 137.4 C 113.39 125.53 112.77 113.31 113.44 108.8" fill="none" stroke="#0a0a0a" stroke-width="7" stroke-linejoin="round" stroke-linecap="round" stroke-miterlimit="10" pointer-events="all"/></g></svg>