<?xml version="1.0" encoding="utf-8"?>
<!-- Generator: Adobe Illustrator 25.2.1, SVG Export Plug-In . SVG Version: 6.00 Build 0)  -->
<svg version="1.1" id="レイヤー_1" xmlns="http://www.w3.org/2000/svg" xmlns:xlink="http://www.w3.org/1999/xlink" x="0px"
	 y="0px" width="650px" height="80px" viewBox="0 0 650 80" style="enable-background:new 0 0 650 80;" xml:space="preserve">
<style type="text/css">
	.st0{fill:#231815;}
</style>
<path class="st0" d="M105.6,48.6c0-0.1,0-0.2-0.2-0.3c-0.2-0.1-0.2-0.2-0.3-0.4c0-0.1,0-0.2,0-0.3c0-0.1-0.1-0.2-0.2-0.2
	c-0.1,0-0.2-0.1-0.2-0.2c0-0.1-0.1-0.2-0.1-0.3c0-0.1-0.1-0.2-0.2-0.2c-0.1,0-0.2-0.1-0.2-0.2c0-0.1-0.1-0.1-0.2-0.1
	c-0.1,0-0.2-0.1-0.3-0.2c-0.1-0.1-0.2-0.2-0.3-0.2c-0.2,0-0.3,0-0.5,0c-0.2,0.1-0.5,0.1-0.7,0.3c0,0-0.1,0.1-0.2,0.1
	c-0.3,0-0.5,0-0.8,0c-0.3,0-0.7,0-1,0.2c0,0-0.1,0-0.2,0c-0.6,0.1-1.2,0.1-1.8,0.1c-0.3,0-0.6,0.1-0.9,0.1C97.3,47,97.1,47,96.9,47
	c-0.5,0-1,0.1-1.5,0.1c-0.2,0-0.4,0-0.6,0.1c-0.1,0-0.2,0-0.3,0c-0.4,0-0.8,0-1.2,0c-1.3,0-2.6,0-3.9,0.1c-0.2,0-0.5,0-0.7,0.1
	c-0.1,0-0.2,0-0.2,0c-0.6,0.1-1.3,0.1-1.9,0.1c-2.2,0-4.4,0-6.5,0.1c-0.8,0-1.6,0-2.4,0c-0.7,0-1.4,0-2.1,0c-0.3,0-0.6,0-0.9,0
	c-0.1,0-0.3,0-0.4,0.1c-0.2,0.1-0.4,0.1-0.7,0c-0.1,0-0.2,0-0.3,0C73.1,48,72.9,48,72.8,48c-0.4,0-0.7,0-1.1,0c-0.1,0-0.3,0-0.4,0
	c-0.3-0.1-0.6-0.1-0.9,0C70.3,48,70.1,48,70,48c-0.5,0-1,0-1.5,0c-11.3,0-22.7,0-34,0c-0.8,0-1.6,0-2.4,0c-0.2,0-0.4,0-0.6-0.1
	c-0.1,0-0.3,0-0.4,0c-0.6,0-1.2,0-1.7,0c-0.8,0-1.5,0-2.3,0c-0.3,0-0.6,0-1,0c-0.3,0-0.6,0-0.9,0c-1.4,0-2.8,0-4.2,0
	c-1.1,0-2.1,0-3.2-0.1c-0.1,0-0.2,0-0.3,0c-0.2,0-0.5,0-0.7,0c-0.1,0-0.2,0-0.3-0.1c-0.1-0.1-0.3-0.1-0.4-0.1
	c-0.8,0-1.6-0.1-2.4-0.1c-0.6,0-1.2,0-1.7,0c-0.3,0-0.5,0-0.8-0.1c-0.1,0-0.2,0-0.3,0c-0.7-0.1-1.4-0.1-2-0.1c-0.2,0-0.5,0-0.7-0.1
	c-0.2-0.1-0.5-0.1-0.8-0.1c-0.2,0-0.4,0-0.5,0c-0.4,0-0.8,0-1.3-0.1c-0.1,0-0.3,0-0.4-0.1c0,0-0.1,0-0.2-0.1c-0.2,0-0.5-0.1-0.7-0.1
	c-0.2,0-0.4,0-0.6,0c-0.2,0-0.3,0-0.4-0.2c0,0-0.1-0.1-0.1-0.1C2.8,46,2.5,46,2.2,46C2,46,1.9,46,1.9,46.2c0,0.1-0.1,0.1-0.2,0.2
	c-0.1,0-0.2,0.1-0.2,0.2c0,0.1-0.1,0.2-0.2,0.2c-0.1,0-0.2,0.1-0.2,0.2c0,0.1,0,0.2-0.1,0.2c0,0.1-0.1,0.1-0.2,0.2c0,0-0.1,0-0.1,0
	c-0.1,0-0.1,0.1-0.1,0.1c0,0.2,0,0.4,0,0.5c0,0.1-0.1,0.2-0.2,0.2c-0.1,0-0.1,0-0.2,0.1c0,0-0.1,0.1-0.1,0.2c0,0,0,0.1,0,0.1
	c0,1,0,1.9,0,2.9c0,0.1,0,0.3,0.1,0.4c0,0,0.1,0.1,0.1,0.1c0,0,0.1,0,0.1,0.1c0.1,0,0.1,0.1,0.1,0.2c0,0.1,0,0.3,0,0.4
	c0,0.2,0.1,0.3,0.3,0.4c0.1,0,0.2,0.1,0.2,0.2c0,0.2,0.1,0.2,0.3,0.2c0,0,0.1,0,0.1,0c0.1,0.1,0.2,0.3,0.2,0.5C1.7,54,1.9,54,2,54.2
	c0.1,0.1,0.2,0.1,0.3,0.1c0.2,0,0.4,0,0.5-0.1c0,0,0.1,0,0.1,0c0.2,0,0.4-0.1,0.7-0.1c0.1,0,0.1,0,0.2-0.1c0.1-0.1,0.2-0.1,0.4-0.1
	c0.3,0,0.5-0.1,0.8-0.1c0.2,0,0.5-0.1,0.7-0.2c0.1-0.1,0.2-0.1,0.4-0.1c0.5,0,0.9,0,1.4,0c0.3,0,0.5,0,0.8,0c0.2,0,0.5,0,0.7-0.1
	c0.1-0.1,0.3-0.1,0.4-0.1c0.8,0,1.6-0.1,2.4-0.1c0.5,0,1,0,1.5,0c0.1,0,0.3,0,0.4,0c0.2-0.1,0.4-0.1,0.6-0.1c0.4,0,0.8,0,1.2-0.1
	c0.4,0,0.8,0,1.3,0c0.5,0,1,0,1.5-0.1c0.2,0,0.4,0,0.7-0.1c0.1,0,0.2,0,0.3,0c0.1,0,0.3,0,0.4,0c1.3,0,2.6,0,3.9,0
	c1.7,0,3.4,0,5.1-0.1c1.2,0,2.4,0,3.5,0c1.4,0,2.8,0,4.2,0c5.9,0,11.7,0,17.6,0c5.9,0,11.7,0,17.6,0c1.3,0,2.5,0,3.8,0
	c1.5,0,3,0,4.5,0c0.4,0,0.8,0,1.2,0c0.8,0,1.7,0,2.5,0c1,0,2,0,3,0c0.2,0,0.3,0,0.5,0.1c0.1,0,0.3,0.1,0.4,0.1c0.2,0,0.4,0,0.7,0
	c0.2,0,0.4,0,0.5,0c0.9,0,1.9,0,2.8,0.1c0.2,0,0.4,0,0.7,0.1c0.1,0,0.2,0,0.2,0c0.1,0,0.2,0,0.3,0c1.3,0,2.5,0.1,3.8,0.2
	c0.1,0,0.2,0,0.2,0c0.2,0.1,0.3,0.1,0.5,0.1c0.3,0,0.5,0,0.8,0.1c0.5,0,1,0,1.5,0c0.2,0,0.4,0,0.6,0.2c0,0,0.1,0,0.2,0.1
	c0.2,0,0.4,0,0.6,0.1c0.3,0,0.5,0,0.8,0.2c0.1,0.1,0.3,0.1,0.4,0.1c0.2,0,0.5,0.1,0.7,0.1c0,0,0.1,0,0.1,0.1
	c0.1,0.1,0.3,0.1,0.5,0.1c0.2,0,0.3,0,0.4-0.2c0.1-0.1,0.3-0.1,0.4-0.2c0.1-0.1,0.2-0.3,0.3-0.4c0,0,0,0,0.1,0
	c0.2,0,0.3-0.1,0.3-0.3c0-0.1,0.1-0.2,0.2-0.2c0.1,0,0.2-0.1,0.2-0.2c0-0.1,0-0.2,0-0.2c0-0.1,0-0.3,0.1-0.4c0.1,0,0.1-0.1,0.2-0.1
	c0.1-0.1,0.2-0.1,0.2-0.3c0-0.1,0-0.2,0-0.2c0-0.2,0-0.4,0-0.5C105.7,50.2,105.7,49.4,105.6,48.6z M78.3,73.9c0-0.1-0.1-0.2-0.1-0.2
	c-0.2-0.1-0.2-0.2-0.3-0.4c0-0.1,0-0.3-0.1-0.4c0-0.1-0.1-0.2-0.1-0.2c-0.2,0-0.3-0.1-0.3-0.3c0-0.1,0-0.1-0.1-0.2
	c0-0.1-0.1-0.1-0.2-0.1c-0.4-0.1-0.7-0.1-1.1,0c-0.3,0.1-0.5,0.1-0.8,0.1c-0.1,0-0.2,0-0.3,0c-0.2-0.1-0.4-0.1-0.6-0.1
	c-0.4,0-0.9-0.1-1.3-0.1c-0.1,0-0.3,0-0.4-0.1c0,0-0.1,0-0.2-0.1c-0.1,0-0.3-0.1-0.4-0.1c-0.2,0-0.3,0-0.5-0.2c0,0-0.1-0.1-0.1-0.1
	c-0.2,0-0.3-0.1-0.5-0.1c-0.2,0-0.3,0-0.5-0.1c-0.1,0-0.1-0.1-0.2-0.1c0-0.1-0.1-0.1-0.2-0.1c-0.1,0-0.2,0-0.3-0.1
	c-0.2,0-0.3-0.1-0.5-0.2c-0.1-0.1-0.1-0.1-0.2-0.1c-0.1,0-0.2-0.1-0.3-0.2c0-0.1-0.1-0.1-0.2-0.1c-0.2,0-0.3-0.1-0.5-0.1
	c-0.1,0-0.2-0.1-0.3-0.1c-0.2-0.1-0.4-0.3-0.7-0.3c-0.1,0-0.2,0-0.2-0.1c-0.1,0-0.1-0.1-0.2-0.1c-0.2-0.1-0.3-0.1-0.5-0.2
	c-0.1,0-0.1,0-0.2-0.1c-0.1-0.1-0.2-0.2-0.3-0.2c-0.1,0-0.2,0-0.3-0.1c0-0.1-0.1-0.1-0.2-0.1c-0.2,0-0.3-0.1-0.5-0.1
	c-0.1,0-0.1,0-0.2-0.1c-0.1-0.1-0.1-0.1-0.2-0.2c-0.3-0.1-0.6-0.2-0.8-0.4c0,0-0.1,0-0.2-0.1c0,0-0.1,0-0.1,0c0,0,0-0.1,0-0.1
	c0,0,0-0.1,0-0.1c0,0,0.1-0.1,0.1-0.1c0.1,0,0.2-0.1,0.2-0.2c0-0.1,0.1-0.1,0.2-0.1c0.2,0,0.3-0.1,0.4-0.2c0,0,0.1-0.1,0.2-0.1
	c0.1,0,0.2-0.1,0.2-0.1c0.1-0.1,0.2-0.2,0.3-0.2c0.2-0.1,0.4,0,0.5-0.1c0,0,0.1-0.1,0.1-0.1c0-0.1,0.1-0.2,0.2-0.2
	c0.1,0,0.2-0.1,0.4-0.1c0.2,0,0.3-0.1,0.4-0.2c0,0,0.1-0.1,0.2-0.1c0.1,0,0.1,0,0.2-0.1c0.1-0.1,0.3-0.2,0.4-0.2
	c0.1,0,0.2,0,0.2-0.1c0.1-0.1,0.1-0.2,0.3-0.2c0.2,0,0.4-0.1,0.6-0.1c0.1-0.1,0.2-0.3,0.4-0.3c0.1,0,0.2,0,0.2-0.1
	c0.1-0.1,0.2-0.1,0.2-0.1c0.2-0.1,0.4-0.1,0.5-0.2c0,0,0.1,0,0.1-0.1c0.1-0.1,0.2-0.2,0.3-0.2c0.1,0,0.2,0,0.3-0.1
	c0.1-0.1,0.2-0.1,0.3-0.2c0.1-0.1,0.2-0.1,0.3-0.1c0.1,0,0.2,0,0.2-0.1c0.1-0.1,0.1-0.1,0.2-0.1c0.1,0,0.2-0.1,0.2-0.1
	c0,0,0.1-0.1,0.1-0.1c0.2,0,0.4,0,0.6-0.1c0.1,0,0.2,0,0.2-0.1c0.1-0.1,0.1-0.1,0.2-0.2c0.1,0,0.3-0.1,0.4-0.1
	c0.2,0,0.3-0.1,0.4-0.2c0,0,0.1-0.1,0.1-0.1c0.2-0.1,0.4-0.1,0.6-0.2c0,0,0.1,0,0.1-0.1c0.1-0.1,0.2-0.1,0.3-0.2
	c0.1,0,0.2-0.1,0.2-0.1c0.1-0.1,0.2-0.2,0.3-0.2c0.1,0,0.2,0,0.3,0c0.2-0.1,0.5-0.1,0.7-0.3c0,0,0.1-0.1,0.2-0.1
	c0.1,0,0.2,0,0.2-0.1c0-0.1,0.1-0.2,0.1-0.3c0-0.1,0.1-0.2,0.3-0.3c0.1,0,0.2-0.1,0.2-0.2c0-0.1,0-0.3,0-0.4c0,0,0-0.1,0-0.1
	c0-0.1-0.1-0.2-0.2-0.2c-0.1,0-0.2-0.1-0.2-0.2c0-0.1-0.1-0.3-0.1-0.4c-0.1-0.1-0.3-0.1-0.4-0.2c-0.1,0-0.1,0-0.2,0
	c-0.2,0-0.5,0-0.7,0.1c-0.2,0.1-0.3,0.1-0.5,0.2c0,0-0.1,0.1-0.2,0.1c-0.2,0-0.3,0-0.5,0c-0.1,0-0.3,0-0.3,0.2c0,0-0.1,0.1-0.1,0.1
	c0,0-0.1,0-0.1,0c-0.1,0-0.3,0.1-0.4,0.1c-0.2,0-0.3,0.1-0.4,0.2c0,0-0.1,0-0.1,0c-0.2,0.1-0.4,0.1-0.6,0.2C72.2,61,72,61,71.9,61
	c-0.1,0-0.2,0.1-0.4,0.1c-0.1,0-0.2,0.1-0.3,0.2c0,0.1-0.1,0.1-0.2,0.1c-0.2,0-0.3,0.1-0.5,0.1c-0.1,0-0.2,0.1-0.3,0.2
	c0,0.1-0.1,0.1-0.2,0.1c-0.1,0-0.2,0-0.3,0.1c-0.1,0.1-0.2,0.1-0.3,0.2c-0.1,0-0.3,0.1-0.4,0.1c0,0-0.1,0-0.1,0.1
	c-0.1,0.2-0.2,0.2-0.4,0.2c-0.1,0-0.3,0-0.4,0c-0.1,0-0.1,0-0.2,0.1c0,0.1-0.1,0.1-0.2,0.2c-0.3,0.1-0.6,0.2-0.8,0.3
	c-0.1,0-0.2,0.1-0.2,0.1c-0.1,0-0.2,0.1-0.2,0.2c0,0.1-0.1,0.1-0.2,0.1c-0.2,0-0.3,0.1-0.5,0.1c-0.1,0-0.1,0-0.2,0.1
	c-0.1,0.1-0.2,0.2-0.4,0.2c-0.2,0-0.4,0.1-0.5,0.2c-0.1,0.1-0.3,0.2-0.5,0.3c-0.2,0.1-0.3,0.2-0.5,0.2c-0.1,0-0.1,0.1-0.2,0.1
	c0,0.1-0.1,0.1-0.2,0.1c-0.2,0-0.3,0.1-0.5,0.1c-0.1,0-0.2,0.1-0.3,0.2c0,0,0,0.1-0.1,0.1c-0.1,0-0.2,0-0.3,0.1
	c-0.1,0.1-0.2,0.1-0.3,0.2c0,0,0,0,0,0c-0.2,0-0.3,0.1-0.5,0.1c-0.1,0-0.2,0.1-0.2,0.2c-0.1,0.1-0.1,0.1-0.2,0.1
	c-0.2,0-0.3,0.1-0.4,0.2c0,0-0.1,0.1-0.1,0.1c-0.2,0.1-0.4,0.1-0.6,0.2c0,0,0,0,0,0c-0.1,0.2-0.2,0.2-0.4,0.2c-0.1,0-0.3,0-0.4,0
	c-0.1,0-0.2-0.1-0.2-0.2c0-0.1-0.1-0.1-0.2-0.1c-0.1,0-0.1,0-0.2,0c-0.1,0-0.1-0.1-0.1-0.1c0,0,0-0.1-0.1-0.1
	c-0.2-0.1-0.3-0.1-0.5-0.2c-0.2,0-0.3-0.1-0.4-0.2c0,0,0-0.1-0.1-0.1c-0.2,0-0.3-0.1-0.5-0.2c0,0-0.1,0-0.1,0
	c-0.1,0-0.2-0.1-0.3-0.2c0-0.1-0.1-0.1-0.1-0.1c-0.2,0-0.4-0.1-0.6-0.2c0,0-0.1,0-0.1-0.1c-0.1-0.1-0.2-0.2-0.3-0.2
	c-0.1,0-0.2-0.1-0.3-0.2c0,0-0.1-0.1-0.1-0.1c0,0-0.1,0-0.1,0c-0.1,0-0.2-0.1-0.2-0.2c0,0,0-0.1-0.1-0.1c0,0-0.1,0-0.1,0
	c-0.3,0-0.6-0.1-0.8-0.3c-0.1-0.1-0.2-0.1-0.3-0.1c-0.1,0-0.1,0-0.2-0.1c-0.1-0.1-0.2-0.2-0.3-0.2c-0.1,0-0.2,0-0.2-0.1
	c-0.1-0.1-0.2-0.1-0.2-0.1c-0.2-0.1-0.4-0.2-0.6-0.3c-0.1-0.1-0.2-0.1-0.3-0.1c-0.1,0-0.2,0-0.3-0.1c0,0,0-0.1-0.1-0.1
	c-0.2,0-0.3-0.2-0.6-0.2c-0.1,0-0.2-0.1-0.2-0.1c-0.1-0.1-0.1-0.1-0.2-0.1c-0.1,0-0.2-0.1-0.3-0.2c0,0,0,0-0.1-0.1
	c-0.2,0-0.5-0.1-0.7-0.1c0-0.1-0.1-0.1-0.1-0.2c-0.1-0.1-0.2-0.1-0.3-0.1c-0.1,0-0.2,0-0.3-0.1c-0.1,0-0.3,0-0.4-0.2
	c0,0-0.1-0.1-0.1-0.1c-0.2,0-0.3-0.1-0.5-0.1c-0.1,0-0.1,0-0.2-0.1c-0.1-0.1-0.2-0.1-0.3-0.1c0,0,0,0,0,0c-0.2-0.1-0.5-0.1-0.6-0.3
	c0,0-0.1-0.1-0.2-0.1c-0.1,0-0.3,0-0.4,0c-0.2,0-0.4,0-0.7-0.1c-0.1-0.2-0.2-0.2-0.4-0.2c-0.1,0-0.3,0-0.4-0.1c-0.1,0-0.1,0-0.2-0.1
	c-0.2-0.1-0.4-0.1-0.6-0.2c-0.4,0-0.8-0.1-1.2-0.1c-0.2,0-0.4,0-0.6-0.1c-0.1,0-0.1,0-0.2,0c-0.9-0.1-1.4-0.1-2.4,0
	c-0.1,0-0.2,0-0.3,0.1c-0.1,0.1-0.3,0.1-0.5,0.1c-0.2,0-0.5,0-0.7,0.1c-0.3,0-0.5,0-0.8,0.2c0,0,0,0,0,0c-0.2,0-0.4,0.1-0.6,0.1
	c-0.3,0-0.5,0.1-0.7,0.3c0,0-0.1,0.1-0.2,0.1c-0.2,0-0.4,0-0.6,0.1c-0.1,0-0.1,0-0.1,0.1c0,0.1-0.1,0.1-0.2,0.2
	c-0.2,0-0.3,0.1-0.5,0.1c-0.1,0-0.1,0.1-0.2,0.1c0,0.1-0.1,0.1-0.2,0.1c-0.2,0-0.3,0-0.4,0.2c0,0-0.1,0-0.1,0.1
	c-0.1,0-0.2,0.1-0.3,0.1c-0.1,0.2-0.4,0.2-0.6,0.3c-0.2,0-0.3,0.1-0.4,0.3c0,0.1-0.1,0.1-0.1,0.1c-0.2,0.1-0.3,0.2-0.4,0.4
	c0,0-0.1,0.1-0.1,0.1c-0.1,0-0.2,0.1-0.3,0.2c-0.1,0.1-0.3,0.1-0.4,0.2c0,0-0.1,0.1-0.1,0.1c0,0.1-0.1,0.2-0.2,0.2
	c-0.1,0-0.2,0-0.2,0.1c-0.1,0.2,0,0.4-0.2,0.5c-0.1,0-0.1,0-0.2,0c-0.1,0-0.2,0.1-0.2,0.2c0,0,0,0.1,0,0.1c0,0.1-0.1,0.2-0.2,0.2
	c0,0-0.1,0-0.1,0c-0.1,0.1-0.2,0.2-0.2,0.3c0,0.1,0,0.2,0,0.2c0,0.1-0.1,0.2-0.2,0.2c-0.1,0-0.2,0.1-0.2,0.2c0,0.2-0.1,0.4-0.1,0.5
	c0,0.1-0.1,0.2-0.2,0.2c0,0,0,0,0,0c-0.1,0-0.1,0.1-0.2,0.2c0,0.3,0,0.6-0.1,1c0,0.1-0.1,0.2-0.2,0.3c-0.1,0.1-0.2,0.2-0.2,0.3
	c0,0.1,0,0.3,0,0.4c0,0.8,0,1.5,0,2.3c0,0.1,0,0.3,0,0.4c0,0.1,0,0.2,0.2,0.3c0.1,0.1,0.2,0.2,0.2,0.3c0,0.2,0.1,0.4,0.1,0.6
	c0,0.4,0,0.4,0.4,0.7c0,0.2,0,0.3,0.1,0.5c0,0.1,0.1,0.2,0.2,0.3c0,0,0.1,0,0.1,0c0.1,0,0.2,0.1,0.2,0.3c0,0,0,0.1,0,0.1
	c0.1,0.2,0.2,0.3,0.4,0.4c0,0,0,0,0.1,0.1c0,0,0,0.1,0,0.1c0,0.2,0.1,0.4,0.3,0.4c0.1,0,0.2,0.1,0.2,0.2c0,0.2,0.1,0.2,0.2,0.2
	c0.1,0,0.2,0.1,0.2,0.2c0,0.1,0.1,0.2,0.2,0.2c0.1,0,0.2,0,0.2,0.1c0.1,0.1,0.1,0.1,0.2,0.2c0.2,0.1,0.3,0.2,0.4,0.4
	c0.1,0.1,0.2,0.2,0.3,0.2c0.1,0,0.2,0.1,0.2,0.1c0.1,0.2,0.2,0.2,0.4,0.3c0.1,0.1,0.2,0.1,0.4,0.1c0,0,0.1,0,0.1,0.1
	c0.1,0.1,0.1,0.2,0.3,0.2c0.1,0,0.3,0,0.3,0.2c0,0.1,0.1,0.1,0.2,0.1c0.1,0,0.2,0.1,0.2,0.1c0.1,0.1,0.2,0.1,0.3,0.2
	c0.2,0,0.3,0.1,0.5,0.1c0.1,0,0.2,0,0.3,0c0.1,0,0.2,0.1,0.2,0.1c0.1,0.1,0.1,0.1,0.2,0.1c0.2,0,0.3,0.1,0.5,0.1
	c0.2,0,0.3,0.1,0.5,0.1c0.2,0.1,0.4,0.2,0.6,0.2c0.1,0,0.3,0,0.4,0c0.1,0,0.1,0,0.2,0c0.4,0.1,0.8,0.2,1.1,0.2c0.9,0,1.7,0,2.6,0
	c0.4,0,0.7-0.1,1.1-0.1c0.1,0,0.2,0,0.2-0.1c0.1-0.1,0.2-0.1,0.4-0.1c0.1,0,0.3,0,0.4,0c0.1,0,0.2-0.1,0.3-0.1
	c0-0.1,0.1-0.1,0.2-0.1c0.3,0,0.5-0.1,0.8-0.1c0.3,0,0.3,0,0.5-0.3c0.2,0,0.4,0,0.6-0.1c0.1,0,0.1,0,0.2-0.1
	c0.2-0.2,0.5-0.3,0.7-0.3c0.1,0,0.1-0.1,0.2-0.1c0-0.1,0.1-0.1,0.2-0.1c0.3,0,0.5-0.1,0.8-0.3c0,0,0.1-0.1,0.1-0.1
	c0.2,0,0.4-0.1,0.6-0.2c0,0,0,0,0,0c0.2-0.2,0.5-0.2,0.8-0.4c0,0,0.1,0,0.1,0c0.1,0,0.2-0.1,0.3-0.2c0-0.1,0.1-0.1,0.2-0.1
	c0.2,0,0.3,0,0.4-0.2c0,0,0.1-0.1,0.2-0.1c0.1,0,0.2-0.1,0.4-0.1c0.1,0,0.2-0.1,0.3-0.2c0-0.1,0.1-0.2,0.2-0.2
	c0.1,0,0.2-0.1,0.3-0.2c0,0,0.1-0.1,0.1-0.1c0.1,0,0.1,0,0.2,0c0.1,0,0.2-0.1,0.2-0.1c0-0.1,0.1-0.2,0.2-0.2c0.1,0,0.2-0.1,0.3-0.2
	c0-0.1,0.1-0.1,0.2-0.1c0.1,0,0.2-0.1,0.3-0.2c0.1-0.1,0.1-0.1,0.2-0.1c0.1,0,0.2-0.1,0.2-0.2c0.1-0.1,0.2-0.1,0.3-0.2
	c0.2-0.1,0.3-0.1,0.5-0.1c0,0,0-0.1,0.1-0.1c0-0.1,0.1-0.1,0.2-0.2c0.1,0,0.1,0,0.2,0c0,0,0.1-0.1,0.1-0.1c0.1-0.1,0.2-0.2,0.3-0.2
	c0.1,0,0.2-0.1,0.2-0.2c0,0,0,0,0.1-0.1c0.1,0,0.1,0,0.2,0c0.1,0,0.1-0.1,0.2-0.1c0-0.1,0.1-0.2,0.2-0.2c0.1,0,0.2-0.1,0.3-0.2
	c0-0.1,0.1-0.1,0.2-0.1c0.1,0,0.2-0.1,0.3-0.2c0-0.1,0.1-0.1,0.2-0.1c0.1,0,0.3,0,0.4,0c0.2,0,0.3,0,0.4,0.2c0,0.1,0.2,0.1,0.3,0.1
	c0.1,0,0.2,0.1,0.2,0.2c0,0.1,0.1,0.1,0.1,0.1c0.1,0,0.3,0.1,0.4,0.1c0.2,0.1,0.3,0.1,0.4,0.2c0,0,0.1,0,0.1,0c0.1,0,0.1,0,0.2,0
	c0,0,0.1,0,0.1,0.1c0,0.1,0.1,0.2,0.3,0.2c0.1,0,0.2,0.1,0.3,0.2c0,0,0.1,0.1,0.2,0.1c0.2,0.1,0.3,0.1,0.5,0.2c0.1,0,0.1,0,0.2,0.1
	c0.1,0.1,0.2,0.2,0.3,0.2c0.1,0,0.2,0,0.3,0.1c0.1,0.1,0.3,0.1,0.4,0.2c0.1,0.1,0.2,0.1,0.3,0.1c0.1,0,0.2,0.1,0.2,0.1
	c0,0.1,0.1,0.1,0.2,0.1c0.1,0,0.1,0,0.2,0c0.1,0,0.1,0,0.1,0.1c0,0.1,0.1,0.1,0.2,0.2c0.2,0,0.3,0.1,0.5,0.1c0.1,0,0.2,0.1,0.2,0.1
	c0,0.1,0.1,0.2,0.2,0.2c0.1,0,0.3,0,0.4,0c0.1,0,0.2,0.1,0.3,0.2c0,0.1,0.1,0.1,0.2,0.2c0.1,0,0.2,0.1,0.3,0.2
	c0,0.1,0.1,0.1,0.2,0.1c0.2,0,0.3,0,0.5,0.1c0.1,0,0.2,0.1,0.3,0.2c0,0.1,0.1,0.1,0.2,0.1c0.1,0,0.3,0,0.4,0.1
	c0.2,0.1,0.4,0.3,0.7,0.3c0,0,0.1,0,0.1,0.1c0.1,0.2,0.3,0.2,0.4,0.2c0.1,0,0.1,0,0.2,0.1c0.3,0.2,0.6,0.3,0.9,0.3c0,0,0.1,0,0.1,0
	c0.1,0,0.2,0.1,0.3,0.2c0,0,0.1,0.1,0.2,0.1c0.2,0,0.4,0,0.5,0.2c0.2,0,0.4,0.2,0.6,0.3c0.1,0,0.1,0.1,0.2,0.1
	c0.1,0.1,0.2,0.1,0.3,0.1c0.2,0,0.3,0,0.4,0.1c0.2,0.1,0.4,0.2,0.6,0.2c0.1,0,0.1,0,0.2,0.1c0.1,0.1,0.2,0.2,0.3,0.2
	c0.1,0,0.1,0.1,0.2,0.1c0.1,0,0.1,0.1,0.2,0.1c0.1,0.1,0.3,0.1,0.5,0.2c0.1,0,0.2,0.1,0.2,0.2c0,0.1,0.1,0.1,0.2,0.1
	c0,0,0.1,0,0.1,0c0.1,0,0.1,0,0.1,0.1c0,0.1,0.1,0.2,0.2,0.2c0.2,0,0.3,0.1,0.4,0.2c0.1,0.1,0.2,0.1,0.2,0c0.3-0.1,0.6-0.2,0.8-0.2
	c0.1,0,0.1,0,0.2-0.1c0.1-0.2,0.2-0.2,0.4-0.2c0.1,0,0.2-0.1,0.2-0.2c0-0.1,0.1-0.2,0.2-0.2c0.1,0,0.2-0.1,0.2-0.2
	c0-0.1,0.1-0.2,0.2-0.2c0.1,0,0.2,0,0.2-0.1c0-0.1,0.1-0.3,0.1-0.4c0.1,0,0.2,0,0.2-0.1c0.1,0,0.1-0.1,0.1-0.1c0-0.1,0-0.2,0.1-0.3
	c0-0.1,0.1-0.2,0.2-0.3c0.2-0.1,0.2-0.2,0.2-0.3c0,0,0-0.1,0-0.1c0.1-0.9,0.1-1.8,0-2.8C78.3,74,78.3,74,78.3,73.9z M53.4,69.9
	c0,0.1-0.1,0.1-0.1,0.1c-0.1,0-0.1,0.1-0.2,0.1c-0.1,0-0.1,0.1-0.2,0.1c-0.1,0.1-0.2,0.1-0.3,0.1c-0.1,0-0.2,0.1-0.2,0.2
	c0,0.1-0.1,0.1-0.2,0.1c-0.1,0-0.2,0.1-0.3,0.2c0,0-0.1,0.1-0.1,0.1c-0.1,0-0.1,0-0.2,0c-0.1,0-0.1,0.1-0.2,0.2
	c0,0.1-0.1,0.1-0.1,0.1c-0.2,0-0.4,0.1-0.6,0.1c0,0-0.1,0.1-0.1,0.1c-0.1,0.1-0.1,0.2-0.3,0.2c-0.1,0-0.2,0.1-0.3,0.2
	c0,0-0.1,0.1-0.2,0.1c0,0-0.1,0-0.1,0c-0.1,0-0.1,0.1-0.2,0.1c0,0.1-0.1,0.1-0.2,0.1c-0.3,0-0.5,0.1-0.7,0.3
	c-0.1,0.1-0.2,0.1-0.3,0.1c-0.1,0-0.2,0.1-0.2,0.2c0,0,0,0.1-0.1,0.1c0,0-0.1,0-0.1,0c-0.2,0-0.3,0.1-0.3,0.2
	c-0.1,0.1-0.2,0.1-0.3,0.1c-0.1,0-0.2,0-0.3,0.1c-0.1,0-0.1,0-0.2,0.1c-0.1,0.1-0.1,0.2-0.3,0.2c-0.2,0-0.4,0.1-0.5,0.1
	c-0.1,0-0.1,0-0.2,0.1c-0.1,0.1-0.2,0.2-0.3,0.2c-0.2,0-0.3,0.1-0.5,0.1c0,0-0.1,0-0.1,0c-0.2,0.2-0.5,0.2-0.8,0.2
	c-0.1,0-0.2,0-0.2,0.1c-0.1,0.1-0.2,0.1-0.3,0.1c-0.3,0-0.6,0.1-0.9,0.1c-0.1,0-0.2,0-0.3,0.1C42.3,75,42.2,75,42,75
	c-0.2,0-0.5,0-0.7,0.1c-0.6,0-1.2,0-1.8,0c-0.3,0-0.5,0-0.8-0.1c-0.2,0-0.3,0-0.5-0.1c-0.1-0.1-0.2-0.1-0.3-0.1
	c-0.3,0-0.6-0.1-1-0.1c-0.1,0-0.1,0-0.2-0.1c-0.2-0.2-0.5-0.2-0.7-0.3c-0.1,0-0.2,0-0.3-0.1c0,0-0.1-0.1-0.2-0.1
	c-0.2,0-0.3-0.1-0.5-0.2c0,0-0.1,0-0.1-0.1c-0.1-0.1-0.2-0.2-0.4-0.2c-0.1,0-0.2-0.1-0.2-0.2c0-0.1-0.1-0.1-0.2-0.1c0,0-0.1,0-0.1,0
	c0,0-0.1,0-0.1-0.1c-0.1-0.2-0.3-0.2-0.4-0.3c0-0.1-0.1-0.2-0.1-0.3c-0.1,0-0.2-0.1-0.3-0.1c-0.1-0.1-0.1-0.3-0.2-0.5
	c0,0-0.1,0-0.2-0.1c-0.1,0-0.1-0.1-0.2-0.2c0-0.2-0.1-0.3-0.1-0.5c0,0-0.1-0.1-0.1-0.1c-0.3,0-0.3-0.1-0.3-0.4
	c0-0.4-0.1-0.9-0.1-1.3c0-0.1,0-0.3,0-0.4c0-0.4,0.1-0.9,0.1-1.3c0-0.2,0.1-0.3,0.2-0.3c0.1,0,0.2-0.1,0.2-0.2c0-0.1,0-0.2,0.1-0.3
	c0-0.2,0.1-0.3,0.3-0.3c0,0,0.1-0.1,0.1-0.1c0,0,0-0.1,0-0.1c0-0.1,0.1-0.2,0.2-0.2c0.1,0,0.2-0.1,0.2-0.2c0,0,0,0,0,0
	c0,0,0.1-0.1,0.1-0.1c0.2-0.1,0.3-0.2,0.4-0.3c0.1,0,0.2,0,0.2-0.1c0.1,0,0.1-0.1,0.2-0.1c0-0.1,0.1-0.2,0.2-0.2
	c0.1,0,0.2,0,0.3-0.1c0.1-0.1,0.1-0.1,0.2-0.1c0.1,0,0.2-0.1,0.3-0.2c0.1-0.1,0.1-0.1,0.2-0.1c0.1,0,0.2,0,0.3,0
	c0.1,0,0.3,0,0.4-0.1c0.1-0.1,0.3,0,0.4-0.2c0,0,0.1,0,0.1-0.1c0.2,0,0.4-0.1,0.6-0.1c0.4,0,0.8-0.1,1.2-0.2c0.3-0.1,0.6-0.1,1-0.1
	c0.2,0,0.3,0,0.5,0c0.1,0,0.2,0,0.2,0c0.3,0.1,0.5,0.1,0.8,0.1c0.3,0,0.7,0.1,1,0.1c0.1,0,0.1,0,0.2,0.1c0.2,0.2,0.4,0.2,0.7,0.2
	c0.2,0,0.4,0,0.5,0c0.1,0,0.2,0.1,0.2,0.2c0,0,0,0,0.1,0.1c0.2,0.1,0.3,0.1,0.5,0.2c0.1,0,0.3,0,0.4,0.1c0,0,0.1,0,0.1,0.1
	c0.2,0,0.3,0.1,0.5,0.1c0.1,0,0.1,0,0.2,0.1c0.1,0.1,0.2,0.2,0.4,0.2c0.2,0,0.3,0.1,0.5,0.1c0,0,0.1,0.1,0.1,0.1
	c0,0.1,0.1,0.1,0.2,0.1c0.3,0,0.5,0.1,0.7,0.3c0.1,0.1,0.2,0.1,0.4,0.2c0,0,0.1,0,0.1,0.1c0.1,0.1,0.2,0.2,0.3,0.2
	c0.1,0,0.3,0,0.3,0.2c0,0,0.1,0.1,0.1,0.1c0.1,0,0.2,0.1,0.3,0.1c0.2,0,0.4,0.1,0.5,0.3c0,0,0.1,0.1,0.2,0.1c0.1,0,0.2,0.1,0.3,0.2
	c0,0.1,0.1,0.1,0.2,0.1c0.1,0,0.2,0,0.2,0.1c0.1,0.2,0.2,0.2,0.3,0.2c0.2,0,0.3,0.1,0.5,0.1c0,0,0.1,0.1,0.1,0.1
	c0,0.1,0.1,0.2,0.2,0.2c0,0,0.1,0,0.1,0c0.1,0,0.1,0,0.2,0.1c0,0.1,0.1,0.1,0.2,0.2c0,0,0.1,0,0.1,0c0.1,0,0.1,0.1,0.2,0.2
	c0,0.1,0.1,0.1,0.2,0.2c0.1,0,0.2,0,0.2,0c0,0,0.1,0.1,0.1,0.1c0,0.1,0.1,0.2,0.2,0.2c0,0,0.1,0,0.1,0
	C53.4,69.5,53.5,69.7,53.4,69.9z M28.1,5.4c0.1,0,0.2,0.1,0.2,0.3c0,0,0,0.1,0,0.1c0,0.1,0.1,0.2,0.1,0.3c0,0.1,0.1,0.1,0.2,0.2
	c0.1,0,0.2,0.1,0.2,0.3c0,0.1,0.1,0.1,0.2,0.1c0,0,0.1,0,0.1,0c0.1,0,0.1,0.1,0.2,0.1C29.3,7,29.4,7,29.5,7c0.3,0,0.7,0,1-0.1
	c0.1,0,0.1,0,0.2-0.1c0.1-0.1,0.2-0.1,0.3-0.1c0.3,0,0.6,0,0.9-0.1c0.3,0,0.5,0,0.8-0.2c0.1,0,0.2,0,0.2-0.1
	c0.4-0.1,0.8-0.1,1.2-0.2c0.1,0,0.3,0,0.4-0.1c0.1,0,0.2-0.1,0.3-0.1c0.4,0,0.8,0,1.2,0c0.6,0,1.3-0.1,1.9-0.1c0.1,0,0.2,0,0.3-0.1
	c0.1-0.1,0.3-0.1,0.5-0.1c0.9-0.1,1.8-0.1,2.7-0.1c2.2,0,4.4,0,6.6,0c4.6,0,9.3,0,13.9,0c1.1,0,2.3,0,3.4,0c0.8,0,1.5,0,2.3,0.1
	c0.2,0,0.3,0,0.5,0.1c0.1,0,0.2,0.1,0.3,0.1c0.6,0.1,1.3,0.1,1.9,0.1c0.4,0,0.7,0,1.1,0c0.1,0,0.2,0,0.3,0.1
	c0.3,0.1,0.5,0.2,0.8,0.2c0.1,0,0.3,0,0.4,0c0.2,0,0.4,0.1,0.6,0.1c0.1,0.1,0.3,0.1,0.5,0.1c0.3,0,0.5,0,0.8,0.1
	c0.1,0,0.2,0,0.3,0.1c0,0,0.1,0.1,0.2,0.1C75.5,7,75.8,7.1,76.1,7c0.2,0,0.3,0,0.4-0.2c0,0,0.1-0.1,0.1-0.1c0,0,0.1,0,0.1,0
	c0.1,0,0.2-0.1,0.2-0.1c0-0.2,0.1-0.3,0.2-0.3c0.2-0.1,0.3-0.2,0.3-0.4c0-0.1,0-0.1,0-0.2c0-0.1,0.1-0.2,0.2-0.3
	c0.1,0,0.2-0.1,0.2-0.3c0-0.5,0.1-1,0.1-1.5c0-0.5,0-0.9,0-1.3c0-0.1,0-0.3,0-0.4c0-0.1-0.1-0.2-0.2-0.3c-0.1,0-0.2-0.1-0.2-0.2
	c0-0.1,0-0.2-0.1-0.3c0-0.1-0.1-0.2-0.1-0.2c0,0-0.1,0-0.1-0.1c-0.2,0-0.2-0.2-0.3-0.3c0-0.1-0.1-0.1-0.2-0.2c-0.1,0-0.2,0-0.2-0.1
	C76.4,0,76.3,0,76.1,0c-0.3,0-0.6,0-0.9,0c-0.1,0-0.2,0-0.2,0.1c-0.1,0.1-0.1,0.1-0.2,0.1c-0.2,0-0.3,0-0.5,0.1
	c-0.4,0-0.7,0.1-1,0.2c-0.1,0-0.2,0.1-0.4,0.1c-0.3,0-0.6,0-0.9,0.2c-0.2,0.1-0.4,0.1-0.6,0.1c-0.6,0-1.2,0-1.7,0.1
	c-0.4,0-0.8,0.1-1.3,0.1c-0.1,0-0.2,0-0.3,0.1c-0.3,0.1-0.6,0.2-0.9,0.2c-0.6,0-1.2,0-1.8,0c-1.8,0-3.6,0-5.4,0
	c-5.1,0-10.2,0-15.3,0c-1.6,0-3.2,0-4.8,0c-0.4,0-0.8,0-1.2-0.1c-0.3-0.1-0.5-0.1-0.8-0.1C37,1,36.2,1,35.4,1c-0.2,0-0.4,0-0.6,0
	c-0.1,0-0.3,0-0.4-0.1c-0.2-0.1-0.5-0.1-0.7-0.2c-0.3,0-0.5,0-0.8-0.1c-0.1,0-0.2,0-0.3-0.1c-0.2-0.1-0.5-0.2-0.7-0.2
	c-0.3,0-0.6-0.1-0.9-0.1c-0.1,0-0.1,0-0.2-0.1c-0.1-0.2-0.3-0.2-0.4-0.2c-0.3,0-0.5,0-0.8,0c-0.2,0-0.3,0-0.4,0.2
	c0,0.1-0.1,0.1-0.2,0.1c-0.1,0-0.2,0.1-0.2,0.2c0,0.1-0.1,0.2-0.2,0.2c-0.1,0-0.2,0.1-0.2,0.2c-0.1,0.1-0.1,0.2-0.1,0.4
	c0,0.1-0.1,0.2-0.2,0.3c-0.1,0-0.2,0.2-0.2,0.3c0,0.4-0.1,0.8-0.1,1.2c0,0.3,0,0.5,0,0.8c0,0.4,0.1,0.9,0.1,1.3
	C27.9,5.3,27.9,5.4,28.1,5.4z M27.9,36.5c0,0.2,0,0.3,0,0.5c0,0.2,0.2,0.3,0.3,0.4c0,0.2,0.1,0.3,0.1,0.4c0,0.1,0.1,0.2,0.2,0.2
	c0.1,0,0.2,0.1,0.2,0.2c0,0.1,0.1,0.2,0.2,0.2c0,0,0,0,0,0c0.1,0,0.1,0.1,0.2,0.1c0,0.1,0.1,0.2,0.3,0.2c0.3,0,0.6,0,1,0
	c0.1,0,0.2-0.1,0.3-0.2c0-0.1,0.1-0.1,0.2-0.1c0.3,0,0.6,0,0.9-0.1c0.2,0,0.5-0.1,0.7-0.1c0.1-0.1,0.3-0.1,0.5-0.1
	c0.3-0.1,0.7-0.1,1.1-0.1c0.1,0,0.3,0,0.4-0.1c0.1,0,0.2-0.1,0.3-0.1c0.4,0,0.9-0.1,1.3-0.1c0.5,0,1,0,1.5,0c0.4,0,0.8,0,1.1-0.2
	c0.1,0,0.1,0,0.2,0c0.1,0,0.3,0,0.4,0c1.4,0,2.8-0.1,4.3-0.1c1.6,0,3.3,0,4.9,0c4.1,0,8.1,0,12.2,0c2.1,0,4.3,0,6.4,0.1
	c0.2,0,0.4,0,0.6,0c0.1,0,0.2,0,0.2,0c0.3,0.1,0.5,0.2,0.8,0.2c0.4,0,0.8,0,1.2,0c0.4,0,0.7,0,1.1,0c0.2,0,0.5,0,0.7,0.1
	c0.2,0.1,0.5,0.1,0.8,0.2c0.3,0,0.6,0.1,0.9,0.2c0,0,0.1,0,0.1,0c0.3,0.1,0.6,0.1,0.9,0.1c0.2,0,0.3,0,0.5,0c0.1,0,0.2,0,0.3,0.2
	c0,0,0.1,0.1,0.2,0.1c0.4,0.1,0.7,0.1,1.1,0.1c0.1,0,0.2-0.1,0.2-0.1c0-0.1,0.1-0.2,0.3-0.2c0.1,0,0.2-0.1,0.2-0.2
	c0-0.1,0.1-0.2,0.2-0.2c0,0,0.1,0,0.1,0c0.1-0.1,0.2-0.2,0.2-0.3c0-0.1,0-0.2,0.1-0.3c0-0.1,0.1-0.2,0.2-0.2c0.1,0,0.2-0.1,0.2-0.2
	c0-0.1,0-0.2,0-0.2c0.1-0.9,0.1-1.8,0-2.7c0-0.1,0-0.2,0-0.3c0-0.1-0.1-0.2-0.2-0.3c-0.1,0-0.2-0.1-0.2-0.2c0-0.1,0-0.3-0.1-0.4
	c0-0.1,0-0.2-0.1-0.2c-0.2,0-0.3-0.2-0.3-0.4c0-0.1-0.1-0.2-0.2-0.2c-0.1,0-0.2-0.1-0.2-0.2c0-0.1-0.1-0.1-0.1-0.1
	c-0.4-0.1-0.7,0-1.1,0.1c-0.1,0-0.1,0.1-0.2,0.1C75,32,74.9,32,74.8,32c-0.1,0-0.3,0-0.4,0c-0.3,0-0.6,0-0.9,0.2c0,0-0.1,0-0.1,0
	c-0.1,0-0.3,0-0.4,0c-0.3,0.1-0.6,0-0.8,0.2c-0.1,0-0.2,0-0.2,0c-0.5,0-0.9,0.1-1.4,0.1c-0.5,0-0.9,0-1.4,0.1c-0.3,0-0.7,0-1,0.2
	C67.9,33,67.7,33,67.6,33C66.7,33,65.8,33,65,33c-2.3,0-4.5,0-6.8,0c-4,0-8.1,0-12.1,0c-1.5,0-3.1,0-4.6,0c-0.8,0-1.6,0-2.5-0.1
	c-0.3,0-0.6,0-0.8-0.1c-0.1,0-0.1,0-0.2,0c-0.5-0.1-0.9-0.1-1.4-0.1c-0.5,0-1.1,0-1.6-0.1c-0.2,0-0.5,0-0.7-0.1c-0.1,0-0.2,0-0.2,0
	c-0.3,0-0.6-0.1-0.9-0.1c-0.3,0-0.5,0-0.7-0.2c0,0-0.1,0-0.1,0c-0.2,0-0.3,0-0.5-0.1c-0.3,0-0.6-0.1-0.9-0.1c-0.1,0-0.2,0-0.2-0.1
	c-0.1-0.1-0.2-0.1-0.3-0.2c-0.3-0.1-0.6-0.1-0.9-0.1c-0.1,0-0.2,0-0.2,0.2c0,0.1-0.1,0.1-0.2,0.1c-0.2,0-0.3,0.1-0.3,0.3
	c0,0.1-0.1,0.1-0.1,0.1c-0.1,0-0.2,0.1-0.3,0.2c-0.1,0.1-0.1,0.2-0.1,0.4c0,0.1-0.1,0.2-0.2,0.2c0,0-0.1,0-0.1,0
	c-0.1,0.1-0.1,0.1-0.1,0.2c0,0.4-0.1,0.7-0.1,1.1c0,0.4,0,0.9,0,1.3C27.8,36.1,27.8,36.3,27.9,36.5z M28.2,21.4
	C28.2,21.4,28.2,21.5,28.2,21.4c0.1,0.2,0.1,0.3,0.1,0.5c0,0.1,0.1,0.2,0.2,0.2c0,0,0.1,0,0.1,0.1c0.1,0.2,0.1,0.3,0.2,0.5
	c0.1,0.1,0.3,0,0.4,0.2c0.1,0.1,0.3,0.1,0.4,0.1c0.1,0,0.2,0,0.3,0c0.3-0.1,0.5-0.1,0.8-0.1c0.2,0,0.4-0.1,0.7-0.1
	c0,0,0.1,0,0.1-0.1c0.1-0.1,0.2-0.1,0.3-0.1c0.4-0.1,0.7-0.1,1.1-0.1c0.2,0,0.5,0,0.7-0.1c0,0,0.1,0,0.2,0c0.2,0,0.4,0,0.5-0.1
	c0.3,0,0.6,0,0.9-0.1c0.2,0,0.4,0,0.6-0.1c0.2-0.1,0.4-0.1,0.6-0.1c0.7,0,1.4,0,2.1,0c1.4,0,2.7-0.1,4.1-0.1c0.1,0,0.2,0,0.3,0
	c0.2-0.1,0.5-0.1,0.7-0.1c0.9,0,1.7,0,2.6,0c0.3,0,0.7,0,1,0c0.3,0,0.6,0,0.9,0c3.6,0,7.2,0,10.8,0c0.2,0,0.3,0,0.5,0
	c0.3,0,0.6,0,0.9,0c0.5,0,1,0,1.5,0c0.5,0,1,0,1.5,0c0.1,0,0.2,0,0.3,0.1c0.1,0.1,0.3,0.1,0.4,0.1c0.4,0,0.9,0,1.3,0
	c0.9,0.1,1.7,0.1,2.6,0.1c0.6,0,1.2,0,1.8,0c0.2,0,0.4,0,0.6,0.1c0.1,0,0.1,0,0.2,0c0.4,0.1,0.8,0.1,1.2,0.1c0.2,0,0.4,0,0.6,0.1
	c0.2,0.1,0.5,0.1,0.7,0.1c0.3,0,0.5,0.1,0.8,0.1c0.1,0,0.2,0,0.2,0.1c0.2,0.1,0.5,0.2,0.8,0.2c0.1,0,0.3,0,0.4,0
	c0.1,0,0.2,0,0.3,0.1c0.1,0.1,0.2,0.1,0.4,0c0.1,0,0.2,0,0.3,0c0.2-0.1,0.4-0.1,0.6-0.2c0.1-0.2,0.1-0.3,0.2-0.5c0,0,0,0,0.1,0
	c0,0,0.1,0,0.1,0c0.1,0,0.2-0.1,0.2-0.2c0-0.1,0-0.2,0-0.3c0-0.1,0-0.2,0.1-0.2c0.2-0.1,0.3-0.3,0.3-0.6c0,0,0-0.1,0-0.1
	c0-0.8,0-1.6,0-2.5c0-0.1,0-0.3,0-0.4c0-0.1-0.1-0.3-0.2-0.3c-0.1,0-0.2-0.1-0.2-0.3c0-0.1,0-0.2,0-0.3c0-0.1,0-0.1-0.1-0.1
	c-0.2,0-0.3-0.2-0.4-0.4c0-0.1,0-0.2-0.1-0.2c-0.1,0-0.2,0-0.3-0.1c-0.1,0-0.2-0.1-0.3-0.1c-0.1,0-0.3,0-0.4-0.1c-0.1,0-0.1,0-0.2,0
	C75.5,16,75.3,16,75.1,16c-0.1,0-0.3,0-0.4,0c-0.2,0-0.3,0.1-0.5,0.1c-0.2,0.2-0.5,0.2-0.8,0.2c-0.1,0-0.3,0-0.4,0.1
	c-0.1,0-0.2,0-0.2,0.1c-0.1,0.1-0.2,0.1-0.4,0.1c-0.5,0-0.9,0.1-1.4,0.1c-0.2,0-0.4,0.1-0.6,0.1C70.1,17,69.8,17,69.5,17
	c-0.8,0-1.6,0-2.5,0c-0.3,0-0.6,0-1,0c-0.6,0-1.1,0-1.7,0.1c-0.2,0-0.4,0-0.6,0.1c-0.1,0-0.2,0.1-0.3,0.1c-0.3,0-0.7,0-1,0
	c-1,0-1.9,0-2.9,0c-3.5,0-7.1,0-10.6,0c-1.4,0-2.8,0-4.3,0c-0.3,0-0.6,0-0.9,0c-0.1,0-0.2,0-0.3,0c-0.2-0.1-0.4-0.1-0.7-0.1
	c-0.7,0-1.3-0.1-2-0.1c-0.7,0-1.4,0-2.1,0c-0.6,0-1.2,0-1.8,0c-0.4,0-0.7-0.1-1-0.2c-0.2-0.1-0.5-0.1-0.8-0.1
	c-0.4,0-0.8-0.1-1.3-0.1c-0.1,0-0.2,0-0.3-0.1c-0.1-0.1-0.3-0.1-0.5-0.1c-0.4,0-0.8-0.1-1.2-0.1c-0.1,0-0.2,0-0.3-0.1
	c-0.1-0.1-0.2-0.1-0.3-0.1c-0.1,0-0.3,0-0.4,0c-0.4,0-0.9-0.1-1.3-0.2c-0.1,0-0.2,0-0.3,0.1c-0.1,0.1-0.2,0.2-0.4,0.2
	c0,0-0.1,0-0.1,0c-0.1,0.2-0.1,0.3-0.2,0.5c-0.3,0.1-0.3,0.1-0.4,0.4c0,0.1,0,0.2-0.1,0.3c0,0-0.1,0.1-0.1,0.1
	c-0.2,0-0.2,0.2-0.2,0.3c0,0.2,0,0.5-0.1,0.7c-0.1,0.9,0,1.8,0,2.7C27.9,21.2,28,21.4,28.2,21.4z"/>
<path class="st0" d="M524.2,58.8c-6.9-1-12.5-2.8-17-5.6c-0.9-0.5-1.7-1-2.4-1.6c3.6-1.2,5.4-2.1,9.2-4.3c1.8,0.1,2.3-0.3,2.3-0.8
	c0-0.7-1.4-1.6-5.6-3.9c-0.9,1.4-1.6,2.5-2.4,3.5c-1.1,1.4-2.4,2.7-4.6,4.6c-2.9-2.4-5.3-5.5-6.9-8.8h26.1c0.5,0,0.7-0.2,0.7-0.5
	c0-0.4-0.4-0.9-1.6-1.9c-2.7-2.3-3.2-2.7-3.7-2.7c-0.4,0-1,0.4-3.7,3.9h-25.2v-6h24.6c0.5,0,0.7-0.2,0.7-0.5c0-0.4-0.4-0.9-1.4-1.7
	c-2.2-1.8-2.8-2.2-3.3-2.2c-0.4,0-1,0.4-3.5,3.2h-17.2v-5.8h24.5c0.5,0,0.7-0.2,0.7-0.5c0-0.4-0.4-0.9-1.4-1.7
	c-2.2-1.8-2.8-2.2-3.3-2.2c-0.4,0-1,0.4-3.5,3.2h-17.1v-5.9H517c0.6,0,0.8-0.2,0.8-0.5c0-0.4-0.3-0.8-1.5-1.7
	c-2.6-1.8-3.1-2.2-3.6-2.2c-0.4,0-0.9,0.3-3.2,3.1h-19.4c-2.1-1.4-3.1-1.8-6.3-3c0.4,4.1,0.4,8.2,0.4,12.3v12.2h-4.7
	c-1.6,0-3.1-0.1-5.1-0.4l0.6,2c1.8-0.2,3.3-0.3,4.7-0.3h4.6v15.8c-1.1,0.2-2.2,0.3-3.3,0.4c-1.9,0.2-3.6,0.4-5.2,0.4
	c2,6.8,2,6.8,2.8,6.8c0.8,0,1.2-0.6,1.4-2.1c7.6-2,14.4-4.7,20.6-8.2c0.2-0.1,0.1-0.9-0.2-0.8c-2.8,0.9-6.8,1.8-10.9,2.6v-15h6.2
	c2.6,7.3,5.1,11.5,9.2,14.9c3.4,3,7.6,5.3,11.8,6.8c1.1,0.4,2,0.7,2.5,0.7c0.7,0,1-0.3,1.3-1.3c0.8-2.2,1.5-2.9,3.8-3.4
	C524.4,59.4,524.4,58.8,524.2,58.8z M548,22.9c0.6,2.8,1.3,3.4,2.8,3.4c1.6,0,3-1.4,3-3.1c0-2.9-2.7-5.1-8.2-6.5
	c-0.3-0.1-0.5,0.3-0.3,0.5C546.7,18.6,547.5,20.6,548,22.9z M559.5,21.9c0.6,2.9,1.1,3.6,2.7,3.6c1.8,0,3-1.4,3-3.1
	c0-3-2.1-5.2-8.1-7c-0.3-0.1-0.4,0.3-0.3,0.5C558.3,17.7,559,19.5,559.5,21.9z M540,36.1c2.7,0,4.6-2.5,4.2-7.4h34.5
	c-0.5,2.2-1,3.7-1.8,5.4c-0.1,0.3,0.3,0.6,0.5,0.5c1.5-0.9,3.3-1.9,4.7-3.1c0.6-0.5,0.9-0.7,1.7-0.8c2.1-0.2,2.4-0.3,2.4-1.2
	c0-0.4-0.3-0.9-1.5-2c-2.5-2.5-2.9-2.8-3.4-2.8c-0.4,0-0.9,0.3-3.1,2.8h-8.6c2.6-1.7,5.9-4.6,8-6.9c1.9,0,2.5-0.4,2.5-1
	c0-0.7-1.6-1.6-6.6-3.8c-0.4,1.4-1.1,3-1.9,4.8c-1.1,2.5-2.5,5-3.8,7H544c-0.1-0.9-0.3-1.8-0.6-2.8c-0.1-0.3-0.5-0.2-0.6,0.1
	c-0.4,3.5-1.1,4.5-4,5.9c-1.3,0.7-1.7,1.4-1.7,2.6C537.2,35,538.3,36.1,540,36.1z M586.7,55.1c-4.6-0.9-8.7-2.4-12.4-4.3
	c-4.5-2.4-8.2-5.4-10.7-9h19.8c0.5,0,0.7-0.2,0.7-0.5c0-0.4-0.4-0.8-1.7-1.7c-2.8-2.1-3.4-2.5-3.9-2.5c-0.4,0-1,0.4-3.5,3.5h-12.2
	v-7c1.2-0.7,1.7-1.1,1.7-1.6c0-0.8-1.4-1.1-7-1.7c0.2,2.3,0.3,3.3,0.3,5.1v5.1h-15c-1.6,0-3.1-0.1-5.2-0.4l0.6,2
	c1.9-0.2,3.3-0.3,4.7-0.3h12.7c-4.7,7.7-10.9,13.7-19.6,18.6c-0.2,0.1,0.1,0.6,0.4,0.5c8.8-2.7,17.8-8.1,21.5-13.4
	c-0.1,6.3-0.4,13-0.4,15.2c0,1.2,0.7,1.8,2.3,1.8c1.9,0,3.1-0.7,3.1-2.2c0-2-0.1-4.1-0.1-9.7V42.6c2.1,4.2,4.6,7.7,7.6,10.7
	c2.8,2.6,6,4.8,9.4,6.5c0.9,0.4,1.7,0.8,1.9,0.8c0.5,0,0.7-0.2,1-1c1-2.5,1.8-3.4,3.8-3.9C586.9,55.6,586.9,55.2,586.7,55.1z
	 M648.6,22.4c-2.3-1.9-2.7-2.2-3.3-2.2c-0.4,0-0.9,0.3-2.7,2.5h-5.7v-4.6c1-0.6,1.5-1,1.5-1.5c0-0.5-0.5-1-6.8-1.5
	c0.2,1.4,0.3,2.7,0.3,4v3.6h-5.9c-0.2-0.8-0.4-1.6-0.7-2.5c-0.1-0.3-0.5-0.3-0.6,0c-0.3,2.5-1.2,4.1-3,4.8c-1.3,0.5-1.7,1.1-1.7,2.5
	c0,1.5,1,2.5,2.5,2.5c0.6,0,1.1-0.2,1.6-0.4c0.1,2.9,0.2,5.9,0.2,8.8c0,16.7-0.3,20.9-0.3,25c0,1.4,0.7,1.9,2.3,1.9
	c2,0,2.9-0.7,2.9-2.4V61h11.9v1.6c0,1.7,0.6,2.2,2.3,2.2c1.9,0,3-0.8,3-2.4c0-1-0.2-4.1-0.2-9.9v-1.9c1.2-1,1.4-1.2,1.4-1.6
	c0-0.4-0.3-0.8-1.2-1.6c-1.9-1.5-2.4-1.8-3-1.8c-0.4,0-0.9,0.3-2.9,2.5h-11.3v-7.2h10.1v0.2c0,1.6,0.5,2.2,2.2,2.2
	c1.9,0,2.8-0.7,2.8-2.3c0-0.9-0.1-3.5-0.1-7.4v-1.5c1.1-0.8,1.3-1,1.3-1.4c0-0.4-0.3-0.8-1.2-1.5c-0.5-0.4-1-0.7-1.4-0.9
	c1.6-1,2.7-1.8,3.8-2.7c0.6-0.4,1-0.7,1.4-0.7c1.2-0.1,1.8-0.4,1.8-1C650,23.7,649.7,23.3,648.6,22.4z M641.1,49.5v10.3h-11.9V49.5
	H641.1z M639.4,39.8h-10.1v-8.7h10.1V39.8z M642.3,28c-0.3-0.2-0.6-0.2-0.8-0.2c-0.4,0-0.9,0.3-2.5,2.1h-9.4
	c-1.3-0.9-2.2-1.4-3.8-2.2c0.5-1.2,0.7-2.5,0.5-3.8h17C643.1,25.1,642.7,26.5,642.3,28z M621,31.6c0-0.4-0.3-0.8-1.1-1.4
	c-1.7-1.3-2.2-1.6-2.7-1.6c-0.4,0-0.9,0.3-2.4,1.9h-1.2v-3.9c0.9-0.4,1.4-0.9,1.4-1.2c0-0.4-0.5-0.9-6.1-1.4c0.1,1,0.2,2,0.2,3.2
	v3.3h-1.9c-1.8-1-2.4-1.4-4-2c3.5-2.5,6.7-5.5,9.2-9.1c1.4,1.4,2.3,2.5,3.1,4.5c1.2,2.8,1.4,2.9,2.4,2.9c1.2,0,2.2-1.2,2.2-2.6
	c0-2.3-1.9-3.8-7.1-5.4c1.4-0.1,1.9-0.3,1.9-0.8c0-0.5-0.7-0.8-6.6-3.3c-0.5,1.9-1.5,4.2-3,6.7c-1.9,3.1-4.5,6.5-7.4,9.5
	c-0.2,0.2,0.2,0.7,0.4,0.6c1.2-0.7,2.5-1.4,3.6-2.2c0.2,4.9,0.2,9.7,0.2,14.5v14.4c-1.1,0.1-2.2,0.3-3.3,0.3
	c1.7,5.4,2.2,6.3,2.8,6.3c0.6,0,0.9-0.5,1.1-1.8c6-2.4,8.3-3.5,12.4-6.1c0.3,0.8,0.6,1.7,0.9,2.7c0.4,1.6,0.9,2.1,1.9,2.1
	c1.7,0,2.8-1.5,2.8-3.6c0-3.5-3.7-6.8-9.4-8.4c-0.3-0.1-0.5,0.3-0.3,0.5c1.6,1.7,2.7,3.2,3.6,5.3c-2.5,0.8-5.2,1.5-7.8,2V46.3h8.1
	v0.8c0,1.4,0.4,1.8,2.1,1.8c2,0,2.7-0.6,2.7-2.1c0-1.2-0.1-4.8-0.1-11.7V33C620.8,32.3,621,32,621,31.6z M615.1,45.1H607v-6.2h8.1
	V45.1z M615.1,37.6H607v-5.8h8.1V37.6z M226.3,36.9c-1.9-1.4-2.3-1.7-2.6-1.7c-0.3,0-0.7,0.3-2.7,2.5h-24.5c-1,0-2-0.1-3.4-0.3
	l0.4,1.4c1.2-0.2,2.2-0.2,3.1-0.2h6.6c-1.9,5.3-6,10.4-10.9,13.7c-0.2,0.1,0,0.5,0.2,0.4c2.9-1,5.7-2.7,8.1-4.8V50
	c0,4.6-0.1,5.3-0.1,6.4c0,0.8,0.5,1.2,1.5,1.2c1.4,0,2.3-0.3,2.3-1.5v-1H219v1.1c0,1,0.5,1.3,1.6,1.3c1.6,0,2.3-0.5,2.3-1.7
	c0-0.9-0.2-3.5-0.2-7.3V47c0.9-0.6,1.2-0.9,1.2-1.3c0-0.3-0.2-0.6-0.9-1.2c-1.4-1.2-1.8-1.4-2.2-1.4c-0.3,0-0.7,0.2-2.1,1.9h-14.1
	c-0.5-0.2-0.6-0.3-0.9-0.5c1.6-1.8,2.9-3.9,3.9-6.1H227c0.4,0,0.5-0.1,0.5-0.4S227.2,37.6,226.3,36.9z M204.3,45.9H219v8.2h-14.7
	c0-1.4,0-3.3,0-6.5V45.9z M196.3,33.3c0,0.8,0.4,1.3,1.5,1.3c1.6,0,2.1-0.5,2.1-1.6v-0.6h19.9v0.8c0,0.9,0.4,1.3,1.5,1.3
	c1.5,0,2.1-0.4,2.1-1.6c0-0.6-0.1-2.7-0.1-5.6v-1.1c0.7-0.3,1-0.6,1-0.9c0-0.6-0.5-0.7-4.8-1.1c0.2,1.4,0.2,1.7,0.2,3.3v4.1h-8.5
	v-7.1c0.8-0.3,1.1-0.6,1.1-0.9c0-0.4-0.4-0.8-4.9-1.2c0.1,1.2,0.2,2.3,0.2,3.5v5.7H200v-5.3c0.8-0.3,1.1-0.6,1.1-1
	c0-0.6-0.5-0.7-4.8-1.2c0.2,1.7,0.2,2.7,0.2,4.9C196.4,31.6,196.3,32.9,196.3,33.3z M269.1,42.2c-1.8-1.5-2.2-1.8-2.6-1.8
	c-0.3,0-0.7,0.3-2.8,2.7h-9c0-2.3,0-4.5,0-6.8h13.3c0.4,0,0.5-0.1,0.5-0.4s-0.3-0.6-1.1-1.3c-1.7-1.4-2.2-1.7-2.5-1.7
	c-0.3,0-0.7,0.3-2.5,2.5h-7.6v-6.7c2.8-0.6,5.5-1.3,8-2.4c1.6,0.4,2.3,0.1,2.3-0.4c0-0.6-1-1.4-4-3.3c-0.5,0.5-1.2,0.9-2.1,1.4
	c-4.1,2.1-12,4.3-19.4,5.3c-0.2,0-0.1,0.5,0.1,0.5c3.5,0.1,7.4,0,11.4-0.6v6.1h-9.5c-0.9,0-1.9-0.1-3.1-0.3l0.4,1.4
	c1.1-0.2,1.9-0.2,2.7-0.2h9.5v6.8h-12.5c-0.8,0-1.6-0.1-2.7-0.3l0.4,1.4c0.9-0.2,1.6-0.2,2.3-0.2H251v8.5c0,0.4-0.1,0.5-0.5,0.5
	c-1.5,0-3.3-0.1-5.5-0.3c-0.2,0-0.2,0.5,0,0.5c2.7,0.7,3.8,1.3,4.1,2.5c0.4,1.4,0.4,1.5,1,1.5c1,0,2.3-0.3,3-0.8
	c1.1-0.6,1.5-1.3,1.5-2.9c0-1.4,0-5.1,0-9.5h15c0.4,0,0.5-0.1,0.5-0.4C270.2,43.3,269.9,42.9,269.1,42.2z M282,29.4
	c1.7,0,2.9-2.1,3-5.1c0-0.2-0.4-0.3-0.5-0.1c-0.3,1-1.1,1.7-2.4,2.2c-1.2,0.5-1.5,0.8-1.5,1.6C280.7,28.8,281.2,29.4,282,29.4z
	 M296.6,29.2c1.6,0,2.9-2.1,3-5.1c0-0.2-0.3-0.3-0.4-0.1c-0.4,1-0.9,1.5-2.1,2.1c-1.4,0.6-1.6,0.9-1.6,1.7
	C295.4,28.6,295.9,29.2,296.6,29.2z M295.3,31.9c-0.2,0.1,0,0.5,0.2,0.4c3.7-0.6,6.1-1.7,7.4-3.4c1.3,0.5,2.1,1.1,2.8,1.7
	c1.3,1.4,1.6,1.6,2.1,1.6c0.8,0,1.4-0.6,1.4-1.4c0-1.8-2.8-2.7-6-2.4c0.2-0.3,0.4-0.7,0.5-1c1.9-0.3,3.7-0.7,5.4-1.3
	c1.2,0.2,1.5,0,1.5-0.3c0-0.3-0.8-1.1-2.5-2.3c-0.4,0.5-0.7,0.8-1.7,1.5c-0.7,0.5-1.4,0.9-2.4,1.5c0.2-0.6,0.2-1.2,0.3-1.9
	c0.9-0.4,1.2-0.6,1.2-0.9c0-0.5-0.9-0.8-4.4-1.3c0.1,0.7,0.1,1.1,0.1,1.5c0,2.2-0.3,3.4-1.2,4.7C299.2,30,298.4,30.5,295.3,31.9z
	 M312.2,33.4c-1.6-1.3-1.9-1.6-2.3-1.6c-0.3,0-0.6,0.2-1.7,1.5h-25c0-0.3-0.1-0.6-0.2-1c2.1-0.6,4.1-1.5,5.4-3.4
	c1.1,0.4,2,1.1,3.2,2.6c0.6,0.7,0.8,0.8,1.3,0.8c0.8,0,1.4-0.6,1.4-1.4c0-1.5-1.8-2.5-5.7-2.4c0.3-0.5,0.5-0.9,0.7-1.4
	c1.7-0.2,3.3-0.6,4.7-1.2c1.2,0.1,1.6-0.1,1.6-0.4c0-0.3-0.5-0.7-2.4-2.1c-0.5,0.6-1,1.1-1.5,1.5c-0.6,0.5-1.2,1-2.1,1.6
	c0.2-0.7,0.3-1.4,0.4-2.2c1.1-0.4,1.3-0.5,1.3-0.8c0-0.5-0.8-0.8-4.4-1.3c0,0.7,0,1,0,1.4c0,1.9-0.3,3.4-0.9,4.7
	c-1,1.8-2.8,3.1-5.8,4.1c-0.2,0.1,0,0.5,0.2,0.4c0.8-0.1,1.6-0.3,2.3-0.5c-0.3,1.4-0.9,2.1-2.1,2.7c-1.7,0.7-1.9,1-1.9,1.9
	s0.8,1.8,1.7,1.8c2,0,3-2.2,3-4.7h10c0,0.3-0.2,0.8-0.3,1.3c-0.2,0.6-0.4,1.1-0.6,1.6h-3.6c-1.4-0.7-2.1-1-3.5-1.6
	c0.1,2.5,0.2,5,0.2,7.5c0,4.5-0.2,5.6-0.2,6.7c0,0.9,0.4,1.2,1.4,1.2c1.4,0,2-0.3,2-1.1h19.3c-0.2,2-0.5,3.3-0.9,4
	c-0.3,0.5-0.6,0.6-1,0.6c-0.8,0-1.5-0.1-2.5-0.3c0.1-0.3,0.2-0.5,0.2-0.9c0-1.4-1.4-2.2-4.1-2.6c-0.2,0-0.3,0.2-0.1,0.3
	c0.6,0.6,1.2,1.5,1.5,2.6c0.3,1.1,0.6,1.4,1.3,1.4c0.3,0,0.6-0.1,0.9-0.3c1.5,0.5,2,1.3,2.2,2.5c0,0.4,0.2,0.5,0.6,0.5
	c0.9,0,1.6-0.2,2.2-0.5c0.5-0.2,0.9-0.6,1.3-1.1c0.8-1.1,1.3-2.8,1.7-5.4c1-0.6,1.1-0.8,1.1-1c0-0.3-0.2-0.6-0.8-1.1
	c-1.2-1.1-1.5-1.3-1.9-1.3c-0.3,0-0.6,0.2-1.9,1.6h-19.1v-2.1h22.9c0.4,0,0.5-0.1,0.5-0.4c0-0.3-0.3-0.6-0.9-1.1
	c-1.4-1.2-1.9-1.5-2.2-1.5c-0.3,0-0.7,0.3-2.2,2.1h-18v-2h14c0,0.6,0.5,0.9,1.4,0.9c1.4,0,2-0.4,2-1.4c0-0.5-0.2-1.9-0.2-4v-0.8
	c0.6-0.4,0.8-0.6,0.8-0.9s-0.2-0.6-0.8-1c-1.2-0.9-1.5-1.1-1.9-1.1c-0.3,0-0.6,0.2-1.8,1.4h-8.3c0.8-0.5,1.6-1,1.9-1.2
	c0.9-0.1,1.3-0.3,1.3-0.6c0-0.3-0.8-0.7-2.7-1.2h14.1c-0.2,1.3-0.2,1.6-0.6,3.1c0,0.2,0.1,0.3,0.3,0.2c0.9-0.5,2.1-1.2,2.7-1.7
	c0.4-0.3,0.5-0.4,1.2-0.4c0.6,0,1.1-0.3,1.1-0.8C313.1,34.2,312.9,34,312.2,33.4z M302.5,43.2h-14V41h14V43.2z M302.5,38v2.1h-14V38
	H302.5z M284.1,50.5c-0.3,1.8-0.9,2.6-2.6,3.1c-1.1,0.3-1.6,0.9-1.6,1.8c0,1.1,0.7,1.8,1.9,1.8c2.1,0,3.2-1.9,3.2-4.2
	c0-0.8-0.2-1.6-0.4-2.5C284.5,50.3,284.2,50.3,284.1,50.5z M288.1,51.3c-0.2-0.1-0.3,0.1-0.2,0.3c0.5,1.1,0.7,1.9,0.7,3
	c0,1.7,0.3,2.3,1.4,2.3c1,0,1.8-0.8,1.8-1.8C291.7,53.6,290.6,52.4,288.1,51.3z M293.7,51c-0.2,0-0.3,0.2-0.2,0.3
	c0.6,0.6,1.1,1.6,1.4,3.2c0.2,1.4,0.5,1.7,1.4,1.7c0.9,0,1.7-0.8,1.7-1.9C298.1,52.8,296.7,51.8,293.7,51z M355.2,27.4
	c-2.2-1.7-2.5-2-2.8-2c-0.3,0-0.6,0.2-2,1.7h-9.7v-2.8c0.8-0.2,1.1-0.5,1.1-0.9s-0.4-0.8-5-1.2c0,0.9,0.1,1.6,0.1,2.2v2.7h-10.2
	c-0.1-0.6-0.2-1.1-0.3-1.7c0-0.2-0.4-0.2-0.4,0c0,2-0.8,3.2-2.5,4c-1.1,0.5-1.4,1-1.4,2c0,1.2,0.8,1.9,1.8,1.9c1.9,0,3.1-2,2.9-5.3
	h24c-0.2,1.4-0.4,2-0.6,2.6c-0.1,0.2,0.1,0.3,0.3,0.2c1.1-0.4,1.8-0.7,2.4-1c0.7-0.3,0.7-0.4,2-0.4c1,0,1.6-0.2,1.6-0.7
	C356.4,28.5,356.2,28.3,355.2,27.4z M353.4,32.2c-1.4-1.1-1.8-1.4-2.1-1.4c-0.3,0-0.7,0.3-2.3,2.1h-12.7c-0.8,0-1.5-0.1-2.5-0.3
	l0.4,1.4c0.8-0.2,1.4-0.2,2-0.2h5.5c0,1.7-0.2,3.5-0.6,5.2h-2.6c-1.8-1-2.1-1.2-3.9-1.9c0.2,2.3,0.2,4.6,0.2,6.8
	c0,8.2-0.2,10.3-0.2,12.3c0,0.8,0.5,1.1,1.6,1.1c1.4,0,2-0.4,2-1.5v-0.8h10.7v0.7c0,1.1,0.4,1.5,1.6,1.5c1.4,0,2-0.6,2-1.6
	c0-1.4-0.2-5.9-0.2-12.2v-2.4c1-0.7,1.1-0.8,1.1-1.2c0-0.3-0.2-0.6-0.8-1.1c-1.4-1.1-1.7-1.4-2.1-1.4c-0.3,0-0.6,0.2-2,1.7h-6
	c1.4-1.6,2.5-3.3,3.4-5.2h7.9c0.4,0,0.5-0.1,0.5-0.4S354,32.6,353.4,32.2z M348.9,54h-10.7v-7.2h10.7V54z M348.9,39.7v6.2h-10.7
	v-6.2H348.9z M329.1,29.7c-0.2,1.3-0.5,2.7-1.1,4.1c-1.4,3.9-4,8-6.7,10.7c-0.2,0.2,0.2,0.5,0.4,0.4c1.7-1.1,3.3-2.3,4.7-3.7v4.9
	c0,6-0.3,9-0.3,10c0,1.1,0.5,1.4,1.7,1.4c1.3,0,1.9-0.5,1.9-1.6V40.6c0.8-0.4,1.1-0.6,1.1-0.9c0-0.4-0.3-0.5-2.3-0.9
	c1.4-1.8,2.6-3.8,3.6-6c1.4-0.3,1.6-0.4,1.6-0.9C333.7,31.5,333.3,31.2,329.1,29.7z M370.1,45.7c1.6-4.3,3.2-8.6,4.9-13
	c0.1-0.2-0.4-0.4-0.5-0.2c-2.9,6.2-5.9,12-6.8,13c-0.6,0.8-1.1,1-1.9,1c-0.3,0-0.4,0-1.6-0.2c-0.2,0-0.3,0.5-0.1,0.6
	c2.7,1,3,1.4,3,3.8c0,1.3-0.3,2.5-0.3,3.7c0,1.3,0.6,2,1.8,2c1.4,0,2.5-1.1,2.5-2.7c0-2-1.5-3.6-1.5-5.6
	C369.7,47.5,369.8,46.5,370.1,45.7z M398.2,52.6c-0.3,0-0.7,0.3-1.6,2.3h-0.1V44.5c0.8-0.4,1.1-0.7,1.1-1.1c0-0.3-0.2-0.6-0.8-1.1
	c-1.3-1.2-1.6-1.4-2-1.4c-0.3,0-0.6,0.2-1.9,1.6h-14.6c-1.7-0.9-1.9-1.1-3.6-1.9c0.1,2.4,0.2,4.8,0.2,7.2v7c-0.8,0-1.7-0.1-2.7-0.3
	l0.4,1.4c1.1-0.2,1.9-0.2,2.7-0.2h24.8c0.4,0,0.5-0.1,0.5-0.4c0-0.3-0.3-0.8-0.6-1.2C398.8,52.9,398.5,52.6,398.2,52.6z M380.9,54.8
	h-3V43.4h3V54.8z M386.9,54.8h-3V43.4h3V54.8z M393.1,54.8h-3.1V43.4h3.1V54.8z M367.1,35.5c0.9,2,1.1,2.1,2,2.1
	c1.1,0,1.9-0.8,1.9-2c0-2-2.4-3.3-6.5-3.6c-0.2,0-0.3,0.2-0.2,0.3C365.9,33.6,366.4,34.1,367.1,35.5z M378.5,39.3
	c1.3,0,1.9-0.5,1.9-1.5v-0.1h10.3v0.3c0,0.9,0.5,1.3,1.6,1.3c1.2,0,2-0.5,2-1.4c0-1-0.2-4.4-0.2-8.9V27c0.9-0.6,1.1-0.8,1.1-1.2
	c0-0.3-0.2-0.6-0.8-1.1c-1.4-1.1-1.7-1.4-2.1-1.4c-0.3,0-0.6,0.2-2,1.7h-9.5c-1.7-1-2-1.1-3.7-1.9c0.1,2.1,0.2,4.2,0.2,6.2
	c0,6-0.2,7.4-0.2,8.7C377,38.8,377.4,39.3,378.5,39.3z M380.4,26h10.3v4.8h-10.3V26z M380.4,31.6h10.3v5.1h-10.3V31.6z M370,27.1
	c0.9,2,1.1,2.2,2.1,2.2c1.1,0,1.9-0.8,1.9-2c0-2.1-2.2-3.4-6.8-3.9c-0.2,0-0.3,0.2-0.2,0.3C368.6,24.9,369.3,25.6,370,27.1z
	 M422.1,44.6c0-0.3-0.2-0.6-0.8-1.2c-1.4-1.3-1.7-1.5-2.1-1.5c-0.3,0-0.6,0.2-2,1.7h-5.4c-0.8,0-1.6-0.1-2.7-0.3l0.4,1.5
	c0.9-0.2,1.6-0.3,2.3-0.3h5.4c-1.8,4.3-4.9,7.7-10.1,10.8c-0.2,0.1,0.1,0.6,0.3,0.5c6.4-2.1,10.9-5.6,13.6-10.4
	C421.8,45.2,422.1,45,422.1,44.6z M442.8,51.5c-4.7-0.8-8.4-2.6-11.2-5.3c2.2-0.9,3.6-1.6,7-3.6c1.5,0.1,1.9-0.2,1.9-0.6
	c0-0.5-1.2-1.6-3.5-3.1c-0.5,0.9-1.3,1.8-2.1,2.7c-1,1.1-2.4,2.4-4,3.7c-1.7-1.9-3-4.2-3.9-6.6h5.6c0,0.9,0.4,1.2,1.5,1.2
	c1.4,0,2.2-0.5,2.2-1.4c0-1-0.2-4-0.2-8.2v-1.6c1.1-0.9,1.1-0.9,1.1-1.2c0-0.3-0.2-0.6-0.9-1.1c-1.4-1.2-1.7-1.4-2.1-1.4
	c-0.3,0-0.6,0.2-2.1,1.9h-8.8c0.7-0.5,1.2-1,2.5-2.2c1.2-0.2,1.6-0.4,1.6-0.8c0-0.5-0.7-0.8-4.8-1.6c0,0.8-0.2,1.6-0.3,2.3
	c-0.2,0.8-0.3,1.5-0.6,2.3h-4.6c-1.9-1.1-2.1-1.2-4.1-2c0.2,2.5,0.2,3.6,0.2,6.1c0,4.7-0.2,7.4-0.2,8.6c0,0.7,0.5,1,1.4,1
	c1.5,0,2.2-0.4,2.2-1.3v-0.5h6.3v14.3c0,0.4-0.2,0.5-0.6,0.5c-1.6,0-3.1,0-5.1-0.2c-0.2,0-0.2,0.5,0,0.6c2.9,0.7,3.8,1,4.2,2.5
	c0.2,0.8,0.3,1,0.9,1c1.4,0,2.5-0.4,3.3-1.1c0.6-0.6,0.9-1.3,0.9-2.1c0-1.5-0.1-6.4-0.4-15c1.3,4.2,2.3,6.7,3.7,8.7
	c1.9,2.8,4.6,5.1,7.6,6.6c0.7,0.4,1.3,0.6,1.5,0.6c0.3,0,0.4-0.1,0.8-0.8c0.8-1.5,1.5-2.4,2.9-2.6C443,51.9,443,51.5,442.8,51.5z
	 M416.9,27.7h15.7v4.5h-15.7V27.7z M416.9,37.9v-4.9h15.7v4.9H416.9z"/>
</svg>
