<?xml version="1.0" encoding="utf-8"?>
<!-- Generator: Adobe Illustrator 25.2.1, SVG Export Plug-In . SVG Version: 6.00 Build 0)  -->
<svg version="1.1" id="レイヤー_1" xmlns="http://www.w3.org/2000/svg" xmlns:xlink="http://www.w3.org/1999/xlink" x="0px"
	 y="0px" width="241px" height="250px" viewBox="0 0 241 250" style="enable-background:new 0 0 241 250;" xml:space="preserve">
<style type="text/css">
	.st0{fill:#FFFFFF;}
</style>
<path class="st0" d="M240.9,178.5c0-0.3-0.1-0.6-0.4-0.7c-0.4-0.2-0.6-0.6-0.6-1c0-0.3-0.1-0.5-0.1-0.8c0-0.2-0.1-0.4-0.4-0.5
	c-0.2-0.1-0.4-0.2-0.5-0.4c-0.1-0.2-0.2-0.4-0.2-0.6c-0.1-0.2-0.2-0.4-0.5-0.4c-0.3,0-0.5-0.2-0.5-0.5c-0.1-0.2-0.2-0.3-0.4-0.3
	c-0.3,0-0.5-0.1-0.6-0.4c-0.1-0.3-0.4-0.4-0.7-0.4c-0.4,0-0.7,0-1.1,0c-0.6,0.1-1.2,0.2-1.6,0.6c-0.1,0.1-0.3,0.1-0.4,0.1
	c-0.6,0-1.2,0.1-1.8,0.1c-0.8,0-1.5,0-2.2,0.5c-0.1,0.1-0.3,0.1-0.4,0.1c-1.3,0.2-2.7,0.3-4.1,0.3c-0.7,0-1.3,0.1-2,0.3
	c-0.5,0.1-1.1,0.2-1.6,0.3c-1.2,0.1-2.4,0.2-3.5,0.3c-0.5,0-1,0-1.4,0.3c-0.2,0.1-0.4,0.1-0.6,0.1c-0.9,0-1.8,0.1-2.6,0.1
	c-2.9,0.1-5.9,0-8.8,0.3c-0.5,0-1,0-1.5,0.2c-0.2,0.1-0.4,0.1-0.5,0.1c-1.5,0.1-2.9,0.2-4.4,0.3c-5,0-9.9,0.1-14.9,0.1
	c-1.8,0-3.7,0-5.5,0.1c-1.6,0.1-3.2,0.1-4.9,0.1c-0.7,0-1.4,0-2.1,0c-0.3,0-0.6,0.1-0.9,0.1c-0.5,0.2-1,0.2-1.5,0
	c-0.2-0.1-0.4-0.1-0.6,0c-0.4,0.2-0.7,0.2-1.1,0.2c-0.9,0-1.7,0-2.5,0c-0.3,0-0.6,0-0.9-0.1c-0.7-0.2-1.4-0.2-2.1,0
	c-0.2,0.1-0.5,0.1-0.8,0.1c-1.1,0-2.3,0-3.4,0c-25.9,0-51.7,0.1-77.6,0c-1.8,0-3.7,0-5.5,0c-0.5,0-0.9,0-1.4-0.2
	c-0.3-0.1-0.6-0.1-0.9-0.1c-1.3,0-2.6,0-4,0c-1.7,0-3.5-0.1-5.2-0.1c-0.7,0-1.5-0.1-2.2-0.1c-0.7,0-1.3,0-2,0c-3.2,0-6.3,0-9.5-0.1
	c-2.4,0-4.9,0-7.3-0.2c-0.2,0-0.4,0-0.7,0c-0.5,0-1.1,0-1.7-0.1c-0.2,0-0.4,0-0.6-0.1c-0.3-0.2-0.6-0.2-1-0.2
	c-1.8-0.1-3.7-0.2-5.5-0.2c-1.3,0-2.7,0-4-0.1c-0.6,0-1.2,0-1.8-0.3c-0.2-0.1-0.5-0.1-0.8-0.1c-1.5-0.1-3.1-0.2-4.6-0.3
	c-0.6,0-1.1-0.1-1.6-0.3c-0.6-0.2-1.1-0.2-1.7-0.3c-0.4,0-0.8,0-1.2-0.1c-1-0.1-1.9-0.1-2.9-0.2c-0.3-0.1-0.7-0.1-0.9-0.3
	c-0.1-0.1-0.3-0.1-0.4-0.1c-0.5-0.1-1.1-0.2-1.6-0.2c-0.5,0-1-0.1-1.4-0.1c-0.3,0-0.7-0.1-0.9-0.4c-0.1-0.1-0.2-0.1-0.3-0.2
	c-0.7-0.2-1.4-0.4-2.2-0.3c-0.3,0-0.6,0.1-0.7,0.4c-0.1,0.2-0.3,0.3-0.5,0.4c-0.2,0-0.4,0.1-0.5,0.4c-0.1,0.3-0.3,0.4-0.5,0.5
	c-0.3,0-0.5,0.2-0.5,0.5c0,0.2-0.1,0.4-0.1,0.5c-0.1,0.2-0.2,0.3-0.4,0.4c-0.1,0-0.2,0.1-0.3,0.1c-0.1,0.1-0.2,0.2-0.2,0.3
	c0,0.4-0.1,0.8-0.1,1.2c0,0.2-0.1,0.4-0.4,0.5c-0.1,0.1-0.3,0.1-0.4,0.2c-0.1,0.1-0.2,0.2-0.2,0.4c0,0.1,0,0.2,0,0.3
	c-0.1,2.2,0,4.3,0,6.5c0,0.3,0.1,0.6,0.2,0.9c0,0.1,0.1,0.2,0.2,0.2c0.1,0.1,0.2,0.1,0.3,0.1c0.2,0.1,0.3,0.2,0.3,0.4
	c0,0.3,0,0.7,0.1,1c0.1,0.4,0.2,0.7,0.6,0.8c0.2,0.1,0.4,0.2,0.4,0.5c0,0.4,0.3,0.5,0.6,0.5c0.1,0,0.1,0.1,0.2,0.1
	c0.2,0.3,0.4,0.7,0.5,1c0.3,0.2,0.7,0.2,1,0.5c0.2,0.3,0.5,0.3,0.8,0.3c0.4,0,0.8,0,1.1-0.3c0.1-0.1,0.2-0.1,0.3-0.1
	c0.5,0,1-0.3,1.5-0.3c0.1,0,0.3,0,0.4-0.1c0.3-0.2,0.5-0.2,0.8-0.3c0.6-0.1,1.2-0.1,1.9-0.2c0.5-0.1,1.1-0.1,1.6-0.4
	c0.3-0.2,0.5-0.2,0.8-0.2c1,0,2.1-0.1,3.1-0.1c0.6,0,1.3,0,1.9,0c0.6,0,1.1-0.1,1.6-0.3c0.3-0.1,0.6-0.2,1-0.2
	c1.8-0.1,3.7-0.2,5.5-0.3c1.1-0.1,2.3-0.1,3.4-0.1c0.3,0,0.6,0,0.9-0.1c0.4-0.2,0.8-0.2,1.3-0.3c0.9,0,1.8-0.1,2.8-0.1
	c1,0,1.9-0.1,2.9-0.1c1.2-0.1,2.3-0.1,3.5-0.2c0.5,0,1-0.1,1.5-0.2c0.2-0.1,0.4-0.1,0.6-0.1c0.3,0,0.7,0,1,0c3,0,6,0,8.9-0.1
	c3.9,0,7.7-0.1,11.6-0.2c2.7,0,5.4,0,8.1,0c3.2,0,6.4-0.1,9.6-0.1c13.4,0,26.7,0,40.1,0c13.4,0,26.8-0.1,40.2,0.1
	c2.9,0,5.7,0,8.6,0.1c3.5,0,6.9,0.1,10.4,0.1c0.9,0,1.8,0,2.6,0c1.9,0,3.8,0,5.7,0c2.2,0,4.5,0.1,6.7,0.1c0.4,0,0.7,0,1.1,0.2
	c0.3,0.1,0.7,0.1,1,0.2c0.5,0,1,0.1,1.5,0.1c0.4,0,0.8,0.1,1.2,0.1c2.1,0.1,4.3,0.1,6.4,0.3c0.5,0,1,0,1.5,0.3
	c0.2,0.1,0.4,0.1,0.5,0.1c0.3,0,0.5,0,0.8,0c2.9,0.1,5.7,0.2,8.6,0.4c0.2,0,0.4,0,0.5,0.1c0.4,0.2,0.8,0.3,1.2,0.3
	c0.6,0.1,1.2,0.1,1.9,0.1c1.1,0,2.3,0.1,3.4,0.1c0.5,0,1,0,1.3,0.4c0.1,0.1,0.3,0.1,0.4,0.1c0.4,0.1,0.9,0.1,1.3,0.2
	c0.6,0.1,1.2,0.1,1.8,0.4c0.3,0.1,0.6,0.1,0.9,0.2c0.5,0.1,1.1,0.2,1.6,0.3c0.1,0,0.2,0.1,0.3,0.1c0.3,0.3,0.7,0.3,1.1,0.3
	c0.4,0,0.7,0,0.9-0.4c0.2-0.3,0.6-0.3,0.9-0.5c0.2-0.3,0.4-0.7,0.6-1c0.1,0,0.1-0.1,0.1-0.1c0.4,0,0.6-0.2,0.7-0.6
	c0-0.2,0.2-0.4,0.5-0.4c0.3-0.1,0.4-0.3,0.5-0.6c0-0.2,0.1-0.4,0.1-0.5c0.1-0.3,0.1-0.7,0.2-1c0.1-0.1,0.3-0.2,0.4-0.2
	c0.3-0.1,0.4-0.3,0.4-0.6c0-0.2,0.1-0.4,0.1-0.5c0-0.4,0-0.8,0.1-1.2C241,182,241,180.3,240.9,178.5z M178.5,236.1
	c0-0.2-0.1-0.4-0.3-0.5c-0.4-0.2-0.6-0.5-0.6-0.8c-0.1-0.3-0.1-0.6-0.2-0.9c0-0.2-0.1-0.4-0.3-0.4c-0.4-0.1-0.6-0.2-0.6-0.6
	c0-0.1-0.1-0.3-0.1-0.4c-0.1-0.2-0.2-0.3-0.4-0.3c-0.8-0.2-1.6-0.1-2.4,0.1c-0.6,0.2-1.2,0.2-1.7,0.2c-0.3,0-0.5,0-0.8-0.1
	c-0.4-0.2-0.9-0.2-1.4-0.2c-1,0-2-0.2-3-0.3c-0.3,0-0.7-0.1-0.9-0.3c-0.1-0.1-0.3-0.1-0.4-0.1c-0.3-0.1-0.6-0.1-1-0.2
	c-0.4,0-0.8-0.1-1.1-0.4c-0.1-0.1-0.2-0.1-0.3-0.1c-0.4-0.1-0.7-0.1-1.1-0.2c-0.4,0-0.7-0.1-1.1-0.1c-0.2,0-0.3-0.1-0.4-0.3
	c-0.1-0.2-0.3-0.2-0.5-0.3c-0.2,0-0.4-0.1-0.6-0.1c-0.4-0.1-0.8-0.2-1.1-0.5c-0.1-0.1-0.3-0.2-0.5-0.2c-0.3,0-0.5-0.1-0.7-0.4
	c-0.1-0.1-0.2-0.2-0.4-0.2c-0.4-0.1-0.8-0.2-1.2-0.2c-0.3,0-0.5-0.1-0.7-0.3c-0.5-0.3-0.9-0.6-1.5-0.6c-0.2,0-0.3-0.1-0.5-0.2
	c-0.1-0.1-0.3-0.2-0.4-0.2c-0.4-0.1-0.8-0.3-1.1-0.4c-0.1,0-0.3-0.1-0.4-0.2c-0.2-0.3-0.4-0.4-0.8-0.4c-0.3,0-0.5-0.1-0.7-0.3
	c-0.1-0.2-0.3-0.2-0.4-0.3c-0.4-0.1-0.8-0.2-1.2-0.2c-0.1,0-0.3-0.1-0.4-0.2c-0.2-0.2-0.3-0.3-0.5-0.4c-0.6-0.3-1.3-0.3-1.8-0.8
	c-0.1-0.1-0.3-0.1-0.4-0.1c-0.1,0-0.1-0.1-0.2-0.1c0-0.1-0.1-0.1-0.1-0.2c0-0.1,0-0.2,0.1-0.2c0.1-0.1,0.2-0.1,0.3-0.1
	c0.3-0.1,0.5-0.2,0.5-0.5c0.1-0.2,0.2-0.3,0.4-0.3c0.4,0,0.6-0.2,0.9-0.4c0.1-0.1,0.2-0.2,0.4-0.2c0.2,0,0.4-0.2,0.5-0.3
	c0.2-0.3,0.4-0.4,0.7-0.5c0.4-0.2,0.8-0.1,1.2-0.2c0.1-0.1,0.1-0.1,0.1-0.2c0.1-0.2,0.2-0.4,0.5-0.4c0.3,0,0.6-0.1,0.8-0.2
	c0.4-0.1,0.7-0.2,0.9-0.5c0.1-0.1,0.2-0.2,0.3-0.2c0.1-0.1,0.3-0.1,0.4-0.2c0.3-0.3,0.6-0.4,1-0.4c0.2,0,0.4-0.1,0.5-0.3
	c0.1-0.3,0.3-0.4,0.6-0.4c0.4-0.1,0.9-0.2,1.3-0.3c0.2-0.3,0.4-0.6,0.8-0.6c0.2,0,0.4-0.1,0.5-0.2c0.2-0.2,0.3-0.2,0.6-0.3
	c0.4-0.1,0.8-0.3,1.2-0.5c0.1,0,0.1-0.1,0.2-0.1c0.1-0.2,0.4-0.3,0.6-0.3c0.3,0,0.5-0.1,0.7-0.2c0.3-0.1,0.5-0.2,0.8-0.4
	c0.2-0.2,0.5-0.2,0.7-0.3c0.2,0,0.4-0.1,0.6-0.3c0.1-0.2,0.3-0.3,0.6-0.3c0.2,0,0.4-0.1,0.6-0.3c0.1-0.1,0.2-0.2,0.3-0.3
	c0.5-0.1,0.9-0.1,1.3-0.1c0.2,0,0.4-0.1,0.6-0.3c0.1-0.2,0.3-0.3,0.5-0.4c0.3-0.1,0.6-0.2,1-0.2c0.4,0,0.6-0.1,0.8-0.4
	c0-0.1,0.2-0.1,0.3-0.2c0.4-0.1,0.8-0.2,1.3-0.3c0.1,0,0.2-0.1,0.3-0.1c0.2-0.2,0.5-0.3,0.8-0.3c0.2,0,0.4-0.1,0.6-0.3
	c0.2-0.3,0.4-0.4,0.7-0.4c0.3,0,0.5,0,0.8-0.1c0.6-0.1,1.2-0.1,1.6-0.6c0.1-0.1,0.3-0.1,0.4-0.2c0.2,0,0.4,0,0.5-0.2
	c0.1-0.2,0.1-0.4,0.2-0.6c0.1-0.3,0.3-0.5,0.6-0.6c0.2,0,0.4-0.3,0.4-0.5c0-0.3,0-0.7,0-1c0-0.1,0-0.1,0-0.2c0-0.2-0.2-0.4-0.4-0.5
	c-0.3-0.1-0.5-0.2-0.5-0.5c-0.1-0.3-0.1-0.6-0.3-0.9c-0.3-0.2-0.7-0.3-1-0.5c-0.1-0.1-0.3-0.1-0.4-0.1c-0.6,0-1.1,0-1.6,0.3
	c-0.4,0.2-0.8,0.2-1.1,0.6c-0.1,0.1-0.3,0.1-0.4,0.1c-0.4,0-0.7,0.1-1.1,0.1c-0.3,0-0.6,0.1-0.7,0.4c-0.1,0.1-0.2,0.1-0.3,0.2
	c-0.1,0-0.1,0.1-0.2,0.1c-0.3,0.1-0.6,0.2-1,0.2c-0.4,0-0.6,0.3-0.9,0.5c-0.1,0-0.1,0-0.2,0.1c-0.4,0.1-0.9,0.3-1.3,0.5
	c-0.2,0.3-0.6,0.3-0.9,0.3c-0.3,0-0.6,0.1-0.9,0.2c-0.3,0-0.5,0.1-0.6,0.4c-0.1,0.1-0.2,0.2-0.4,0.2c-0.4,0.1-0.8,0.1-1.2,0.2
	c-0.3,0-0.5,0.1-0.6,0.4c-0.1,0.2-0.3,0.2-0.5,0.2c-0.2,0-0.5,0-0.6,0.2c-0.2,0.2-0.5,0.3-0.8,0.4c-0.3,0.1-0.6,0.1-1,0.2
	c-0.1,0-0.2,0.1-0.3,0.2c-0.2,0.4-0.5,0.5-0.9,0.5c-0.3,0-0.7,0.1-1,0.1c-0.2,0-0.3,0.1-0.4,0.2c-0.1,0.2-0.2,0.3-0.4,0.4
	c-0.6,0.1-1.3,0.4-1.8,0.7c-0.1,0.1-0.3,0.1-0.5,0.1c-0.3,0-0.5,0.2-0.6,0.4c-0.1,0.1-0.2,0.2-0.4,0.2c-0.4,0-0.8,0.2-1.2,0.3
	c-0.1,0-0.3,0.1-0.4,0.2c-0.2,0.3-0.5,0.4-0.8,0.4c-0.5,0-0.9,0.2-1.2,0.5c-0.3,0.3-0.7,0.4-1,0.6c-0.4,0.2-0.7,0.4-1.1,0.4
	c-0.2,0-0.3,0.2-0.4,0.3c-0.1,0.1-0.2,0.2-0.4,0.2c-0.4,0.1-0.8,0.3-1.2,0.3c-0.3,0-0.5,0.1-0.6,0.4c0,0.1-0.1,0.1-0.1,0.2
	c-0.2,0.1-0.4,0.1-0.6,0.2c-0.2,0.1-0.4,0.3-0.6,0.5c0,0-0.1,0-0.1,0c-0.4,0.1-0.7,0.2-1,0.3c-0.2,0.1-0.4,0.2-0.5,0.4
	c-0.1,0.2-0.3,0.3-0.6,0.3c-0.4,0-0.6,0.1-0.8,0.4c0,0.1-0.2,0.1-0.3,0.2c-0.5,0.1-0.9,0.3-1.4,0.4c0,0-0.1,0-0.1,0.1
	c-0.2,0.4-0.5,0.5-0.9,0.5c-0.3,0-0.6,0-0.9-0.1c-0.3,0-0.4-0.1-0.5-0.4c-0.1-0.2-0.2-0.3-0.4-0.3c-0.1,0-0.3,0-0.4-0.1
	c-0.2,0-0.3-0.1-0.3-0.3c-0.1-0.1-0.1-0.2-0.2-0.3c-0.4-0.1-0.7-0.3-1.1-0.3c-0.4-0.1-0.7-0.2-0.9-0.6c0-0.1-0.1-0.1-0.2-0.1
	c-0.4-0.1-0.8-0.2-1.1-0.5c-0.1-0.1-0.2-0.1-0.3-0.1c-0.3,0-0.5-0.2-0.7-0.5c-0.1-0.1-0.2-0.3-0.3-0.3c-0.5,0-0.8-0.3-1.3-0.4
	c-0.1,0-0.2-0.1-0.2-0.2c-0.2-0.3-0.4-0.4-0.7-0.4c-0.3,0-0.4-0.2-0.6-0.4c0-0.1-0.2-0.2-0.3-0.2c-0.1,0-0.2,0-0.3-0.1
	c-0.2,0-0.4-0.2-0.5-0.4c0-0.1-0.1-0.1-0.1-0.2c-0.1,0-0.1-0.1-0.2-0.1c-0.7-0.1-1.3-0.3-1.8-0.8c-0.2-0.2-0.4-0.2-0.6-0.2
	c-0.1,0-0.3-0.1-0.4-0.2c-0.2-0.3-0.4-0.5-0.8-0.5c-0.2,0-0.4-0.1-0.5-0.2c-0.1-0.2-0.3-0.2-0.6-0.3c-0.4-0.2-0.9-0.3-1.3-0.7
	c-0.2-0.2-0.5-0.3-0.8-0.3c-0.3,0-0.5-0.1-0.7-0.3c0-0.1-0.1-0.1-0.2-0.1c-0.4-0.1-0.8-0.4-1.3-0.4c-0.2,0-0.4-0.1-0.5-0.3
	c-0.1-0.2-0.3-0.3-0.6-0.3c-0.3,0-0.5-0.2-0.6-0.4c0-0.1-0.1-0.1-0.2-0.2c-0.5-0.1-1.1-0.2-1.7-0.3c-0.1-0.1-0.2-0.3-0.3-0.4
	c-0.2-0.2-0.4-0.1-0.6-0.2c-0.2,0-0.4-0.1-0.6-0.1c-0.3-0.1-0.7,0-0.9-0.4c0-0.1-0.2-0.1-0.3-0.1c-0.4,0-0.8-0.2-1.2-0.3
	c-0.1,0-0.3-0.1-0.4-0.2c-0.2-0.2-0.5-0.3-0.8-0.3c0,0-0.1,0-0.1,0c-0.5-0.1-1.1-0.2-1.5-0.6c-0.1-0.1-0.3-0.1-0.4-0.1
	c-0.3,0-0.7,0-1-0.1c-0.5,0-1-0.1-1.5-0.2c-0.2-0.4-0.5-0.6-1-0.6c-0.3,0-0.7-0.1-1-0.2c-0.1,0-0.3,0-0.4-0.1
	c-0.4-0.3-0.9-0.3-1.4-0.4c-0.9-0.1-1.8-0.1-2.6-0.2c-0.5,0-1-0.1-1.4-0.3c-0.1-0.1-0.3-0.1-0.4-0.1c-2-0.2-3.3-0.2-5.4,0
	c-0.2,0-0.5,0-0.6,0.1c-0.3,0.2-0.7,0.2-1.1,0.2c-0.5,0.1-1.1,0.1-1.6,0.2c-0.6,0.1-1.3,0.1-1.8,0.4c0,0-0.1,0-0.1,0
	c-0.4,0.1-0.9,0.2-1.3,0.2c-0.6,0.1-1.2,0.2-1.6,0.6c-0.1,0.1-0.3,0.1-0.4,0.1c-0.5,0.1-1,0.1-1.4,0.1c-0.1,0-0.3,0.1-0.3,0.2
	c-0.1,0.2-0.3,0.3-0.5,0.4c-0.4,0.1-0.8,0.2-1.2,0.2c-0.2,0-0.3,0.1-0.4,0.3c-0.1,0.1-0.2,0.2-0.3,0.2c-0.4,0.1-0.7,0.1-0.9,0.5
	c0,0.1-0.2,0.1-0.3,0.1c-0.2,0.1-0.4,0.1-0.6,0.2c-0.3,0.5-0.9,0.5-1.3,0.8c-0.5,0-0.7,0.2-0.9,0.7c0,0.1-0.2,0.2-0.3,0.3
	c-0.4,0.2-0.7,0.5-1,0.9c-0.1,0.1-0.1,0.2-0.2,0.2c-0.3,0.1-0.6,0.2-0.7,0.5c-0.2,0.3-0.6,0.3-0.8,0.5c-0.1,0.1-0.1,0.2-0.2,0.3
	c-0.1,0.2-0.2,0.4-0.4,0.4c-0.2,0-0.4,0.1-0.5,0.2c-0.2,0.4-0.1,0.8-0.4,1.2c-0.1,0-0.3,0.1-0.4,0.1c-0.2,0.1-0.4,0.2-0.4,0.4
	c0,0.1,0,0.2,0,0.3c0,0.2-0.1,0.4-0.4,0.5c-0.1,0-0.1,0.1-0.2,0.1c-0.3,0.1-0.5,0.4-0.5,0.7c0,0.2-0.1,0.4-0.1,0.5
	c0,0.3-0.2,0.4-0.4,0.4c-0.3,0.1-0.4,0.2-0.5,0.5c-0.1,0.4-0.1,0.8-0.2,1.2c0,0.2-0.1,0.4-0.4,0.5c0,0-0.1,0-0.1,0
	c-0.2,0.1-0.3,0.3-0.4,0.5c0,0.7,0,1.5-0.2,2.2c-0.1,0.3-0.1,0.5-0.4,0.6c-0.3,0.2-0.4,0.5-0.4,0.8c0,0.3-0.1,0.6-0.1,0.9
	c0,1.7,0,3.5,0,5.2c0,0.3,0,0.6,0.1,0.9c0,0.3,0.1,0.5,0.4,0.7c0.3,0.2,0.4,0.4,0.4,0.7c0.1,0.5,0.1,0.9,0.2,1.4
	c0.1,1,0.1,1,0.9,1.7c0.1,0.4,0.1,0.8,0.2,1.2c0,0.3,0.2,0.5,0.4,0.6c0.1,0,0.1,0.1,0.2,0.1c0.3,0.1,0.4,0.3,0.4,0.6
	c0,0.1,0,0.2,0.1,0.3c0.1,0.4,0.4,0.7,0.8,0.8c0.1,0,0.1,0.1,0.1,0.1c0,0.1,0.1,0.2,0.1,0.2c0,0.5,0.3,0.8,0.7,1
	c0.2,0.1,0.4,0.3,0.4,0.5c0,0.4,0.2,0.5,0.6,0.6c0.2,0,0.4,0.2,0.5,0.4c0.1,0.2,0.2,0.4,0.5,0.4c0.2,0,0.3,0.1,0.5,0.3
	c0.1,0.1,0.2,0.3,0.4,0.4c0.4,0.2,0.7,0.5,1,0.8c0.2,0.2,0.4,0.4,0.6,0.5c0.2,0.1,0.4,0.2,0.4,0.3c0.2,0.4,0.5,0.5,0.9,0.6
	c0.3,0.1,0.6,0.2,0.8,0.2c0.1,0,0.2,0.1,0.2,0.2c0.1,0.3,0.3,0.4,0.6,0.4c0.3,0,0.6,0,0.7,0.4c0.1,0.2,0.3,0.2,0.5,0.2
	c0.2,0,0.4,0.1,0.6,0.3c0.2,0.2,0.4,0.3,0.6,0.4c0.4,0.1,0.7,0.2,1.1,0.2c0.3,0,0.5,0.1,0.8,0.1c0.2,0,0.4,0.1,0.6,0.3
	c0.1,0.2,0.3,0.3,0.6,0.3c0.4,0,0.7,0.1,1.1,0.2c0.4,0,0.8,0.1,1.2,0.3c0.4,0.2,0.9,0.4,1.4,0.4c0.3,0,0.7,0.1,1,0.1
	c0.1,0,0.3,0,0.4,0.1c0.8,0.3,1.7,0.4,2.6,0.4c2,0,4,0,6,0c0.8,0,1.6-0.1,2.4-0.2c0.2,0,0.4-0.1,0.5-0.1c0.3-0.1,0.6-0.2,0.9-0.2
	c0.3,0,0.7-0.1,1-0.1c0.3,0,0.5-0.1,0.7-0.3c0.1-0.1,0.2-0.2,0.4-0.2c0.6-0.1,1.2-0.2,1.9-0.2c0.7-0.1,0.7-0.1,1.2-0.6
	c0.4,0,0.9-0.1,1.4-0.1c0.1,0,0.3,0,0.4-0.1c0.5-0.4,1.1-0.6,1.7-0.8c0.2,0,0.3-0.2,0.4-0.3c0.1-0.1,0.2-0.2,0.4-0.2
	c0.6,0,1.2-0.3,1.7-0.6c0.1-0.1,0.2-0.1,0.3-0.1c0.6,0,1-0.2,1.4-0.6c0,0,0.1,0,0.1,0c0.6-0.4,1.2-0.4,1.7-0.9
	c0.1-0.1,0.2-0.1,0.3-0.1c0.3,0,0.5-0.1,0.6-0.4c0.1-0.2,0.2-0.3,0.4-0.3c0.4,0,0.7-0.1,1-0.4c0.1-0.1,0.2-0.2,0.4-0.2
	c0.3-0.1,0.6-0.2,0.9-0.2c0.3,0,0.5-0.1,0.6-0.4c0.1-0.2,0.3-0.3,0.5-0.4c0.3,0,0.5-0.2,0.6-0.4c0-0.1,0.2-0.1,0.3-0.2
	c0.1,0,0.3,0,0.4,0c0.2,0,0.3-0.1,0.4-0.3c0.1-0.3,0.2-0.5,0.5-0.5c0.3,0,0.6-0.1,0.7-0.4c0.1-0.1,0.2-0.2,0.3-0.2
	c0.3,0,0.5-0.2,0.7-0.4c0.1-0.2,0.3-0.3,0.6-0.3c0.2,0,0.4-0.2,0.5-0.4c0.2-0.2,0.4-0.3,0.6-0.4c0.4-0.2,0.8-0.2,1.2-0.3
	c0.1-0.1,0.1-0.2,0.1-0.3c0.1-0.2,0.2-0.3,0.4-0.4c0.1,0,0.3,0,0.4-0.1c0.1,0,0.2-0.1,0.2-0.2c0.1-0.3,0.4-0.4,0.7-0.5
	c0.3,0,0.4-0.2,0.5-0.4c0-0.1,0.1-0.1,0.2-0.2c0.2,0,0.3,0,0.5-0.1c0.2,0,0.3-0.1,0.4-0.3c0.1-0.3,0.2-0.5,0.5-0.5
	c0.3,0,0.6-0.1,0.7-0.4c0.1-0.1,0.2-0.2,0.4-0.2c0.3,0,0.5-0.2,0.7-0.5c0.1-0.1,0.2-0.2,0.4-0.2c0.3,0,0.6,0,0.9,0
	c0.4,0,0.6,0.1,0.8,0.4c0.1,0.2,0.4,0.2,0.6,0.2c0.2,0,0.4,0.1,0.5,0.4c0.1,0.1,0.2,0.3,0.3,0.3c0.3,0,0.6,0.2,0.9,0.3
	c0.4,0.1,0.7,0.2,0.9,0.6c0.1,0.1,0.2,0.1,0.3,0.1c0.1,0,0.3,0,0.4,0.1c0.1,0,0.2,0.1,0.3,0.2c0.1,0.3,0.3,0.4,0.6,0.4
	c0.3,0,0.5,0.1,0.7,0.3c0.1,0.1,0.2,0.2,0.4,0.2c0.4,0.1,0.8,0.3,1.1,0.4c0.1,0,0.3,0.1,0.4,0.2c0.2,0.3,0.4,0.4,0.7,0.4
	c0.2,0,0.4,0.1,0.6,0.2c0.3,0.2,0.6,0.3,0.8,0.5c0.2,0.1,0.4,0.2,0.6,0.2c0.2,0,0.4,0.1,0.5,0.3c0.1,0.1,0.2,0.2,0.4,0.2
	c0.1,0,0.3,0,0.4,0c0.2,0,0.3,0.1,0.3,0.3c0.1,0.2,0.3,0.3,0.5,0.4c0.4,0.1,0.8,0.1,1.2,0.2c0.2,0,0.3,0.1,0.4,0.3
	c0.1,0.2,0.2,0.4,0.5,0.4c0.3,0,0.7,0.1,1,0.1c0.3,0,0.5,0.1,0.6,0.4c0.1,0.2,0.3,0.3,0.5,0.4c0.3,0.1,0.5,0.2,0.6,0.4
	c0.1,0.1,0.2,0.2,0.4,0.2c0.4,0.1,0.7,0.1,1.1,0.2c0.3,0,0.5,0.1,0.6,0.4c0.1,0.2,0.3,0.2,0.5,0.2c0.3,0,0.7,0,0.9,0.3
	c0.5,0.2,0.9,0.6,1.5,0.6c0.1,0,0.2,0,0.3,0.1c0.2,0.4,0.6,0.4,0.9,0.4c0.1,0,0.3,0.1,0.4,0.2c0.7,0.4,1.4,0.7,2.2,0.8
	c0.1,0,0.1,0,0.2,0c0.3,0,0.5,0.2,0.6,0.4c0.1,0.1,0.2,0.2,0.4,0.2c0.4,0,0.8,0.1,1.1,0.4c0.5,0.1,0.8,0.5,1.3,0.6
	c0.1,0,0.3,0.1,0.4,0.2c0.2,0.2,0.4,0.3,0.7,0.3c0.3,0,0.6,0.1,0.9,0.3c0.4,0.3,0.9,0.5,1.4,0.5c0.1,0,0.3,0.1,0.4,0.2
	c0.2,0.3,0.4,0.4,0.7,0.4c0.2,0,0.3,0.2,0.5,0.3c0.1,0.1,0.2,0.2,0.4,0.2c0.3,0.1,0.7,0.3,1,0.3c0.3,0.1,0.5,0.2,0.6,0.5
	c0.1,0.2,0.2,0.3,0.4,0.3c0.1,0,0.2,0,0.3,0c0.1,0,0.3,0.1,0.3,0.3c0.1,0.3,0.3,0.5,0.6,0.4c0.4,0,0.6,0.2,0.9,0.4
	c0.1,0.1,0.3,0.1,0.5,0.1c0.6-0.3,1.3-0.4,1.9-0.6c0.1,0,0.3-0.1,0.4-0.2c0.2-0.4,0.5-0.4,0.8-0.4c0.2,0,0.4-0.1,0.5-0.4
	c0.1-0.3,0.3-0.4,0.6-0.4c0.2,0,0.4-0.1,0.5-0.4c0.1-0.2,0.2-0.4,0.4-0.4c0.2,0,0.4-0.1,0.5-0.3c0.1-0.3,0.2-0.6,0.3-1
	c0.2,0,0.3-0.1,0.5-0.1c0.1,0,0.3-0.1,0.3-0.3c0-0.3,0.1-0.5,0.1-0.8c0-0.3,0.1-0.6,0.5-0.7c0.3-0.1,0.5-0.4,0.6-0.8
	c0-0.1,0-0.2,0-0.3c0.2-2.1,0.2-4.2,0-6.3C178.6,236.4,178.6,236.3,178.5,236.1z M121.8,227c0,0.1-0.2,0.3-0.3,0.3
	c-0.1,0.1-0.3,0.2-0.5,0.3c-0.2,0.1-0.3,0.2-0.4,0.3c-0.2,0.2-0.4,0.3-0.7,0.3c-0.3,0-0.5,0.1-0.6,0.4c0,0.2-0.2,0.3-0.4,0.3
	c-0.3,0-0.6,0.2-0.7,0.5c0,0.1-0.2,0.1-0.3,0.2c-0.1,0.1-0.3,0.1-0.4,0.1c-0.2,0.1-0.3,0.2-0.4,0.4c-0.1,0.1-0.2,0.3-0.3,0.3
	c-0.5,0.1-0.9,0.2-1.4,0.3c-0.1,0.1-0.2,0.2-0.2,0.3c-0.1,0.2-0.3,0.4-0.6,0.4c-0.3,0-0.5,0.2-0.6,0.4c-0.1,0.1-0.2,0.2-0.4,0.2
	c-0.1,0-0.2,0-0.3,0c-0.2,0-0.3,0.1-0.4,0.3c-0.1,0.2-0.2,0.3-0.4,0.3c-0.6,0.1-1.2,0.3-1.7,0.7c-0.2,0.2-0.5,0.1-0.7,0.2
	c-0.2,0-0.4,0.1-0.5,0.4c0,0.1-0.1,0.1-0.1,0.2c-0.1,0-0.2,0.1-0.3,0.1c-0.4,0-0.6,0.2-0.7,0.5c-0.2,0.2-0.5,0.1-0.7,0.2
	c-0.2,0.1-0.5,0.1-0.7,0.2c-0.1,0-0.3,0.1-0.4,0.2c-0.1,0.2-0.3,0.4-0.6,0.4c-0.4,0-0.8,0.1-1.2,0.2c-0.2,0-0.3,0.1-0.4,0.2
	c-0.1,0.2-0.3,0.4-0.6,0.4c-0.4,0.1-0.8,0.2-1.2,0.3c-0.1,0-0.2,0-0.2,0.1c-0.5,0.4-1.2,0.4-1.8,0.6c-0.2,0.1-0.4,0.1-0.5,0.2
	c-0.2,0.2-0.4,0.3-0.7,0.3c-0.7,0.1-1.4,0.1-2.1,0.2c-0.2,0-0.4,0.1-0.6,0.2c-0.3,0.2-0.6,0.3-0.9,0.3c-0.5,0-1.1,0.1-1.6,0.1
	c-1.4,0-2.8,0-4.2,0c-0.6,0-1.2-0.1-1.8-0.1c-0.4,0-0.7-0.1-1-0.3c-0.2-0.1-0.4-0.2-0.6-0.2c-0.7-0.1-1.5-0.1-2.2-0.2
	c-0.1,0-0.3,0-0.4-0.1c-0.5-0.5-1.1-0.5-1.7-0.6c-0.2-0.1-0.4-0.1-0.6-0.2c-0.1-0.1-0.3-0.2-0.4-0.2c-0.4,0-0.7-0.3-1.1-0.4
	c-0.1,0-0.2-0.1-0.3-0.2c-0.2-0.3-0.5-0.4-0.9-0.4c-0.3,0-0.4-0.2-0.5-0.4c-0.1-0.2-0.2-0.3-0.4-0.3c-0.1,0-0.2,0-0.3-0.1
	c-0.1,0-0.2-0.1-0.3-0.2c-0.2-0.5-0.6-0.5-1-0.6c-0.1-0.2-0.2-0.4-0.3-0.6c-0.3-0.1-0.5-0.1-0.8-0.2c-0.2-0.3-0.2-0.8-0.5-1.2
	c-0.1,0-0.2-0.1-0.4-0.1c-0.2-0.1-0.3-0.2-0.4-0.4c-0.1-0.4-0.2-0.7-0.2-1c-0.1-0.1-0.1-0.1-0.2-0.1c-0.7-0.1-0.7-0.3-0.7-0.8
	c-0.1-1-0.2-2-0.2-3.1c0-0.3,0-0.7,0-1c0.1-1,0.2-2,0.2-3c0-0.4,0.1-0.6,0.5-0.8c0.2-0.1,0.4-0.3,0.4-0.5c0.1-0.2,0.1-0.5,0.2-0.7
	c0.1-0.4,0.3-0.7,0.7-0.8c0.1,0,0.2-0.1,0.2-0.2c0-0.1,0.1-0.1,0.1-0.2c0-0.3,0.2-0.5,0.6-0.6c0.2,0,0.4-0.1,0.5-0.4
	c0,0,0-0.1,0-0.1c0.1-0.1,0.1-0.2,0.2-0.3c0.4-0.2,0.7-0.5,1-0.7c0.1-0.1,0.3-0.1,0.5-0.1c0.2,0,0.3-0.1,0.4-0.3
	c0.1-0.2,0.3-0.3,0.5-0.4c0.3,0,0.5-0.1,0.7-0.3c0.1-0.2,0.3-0.2,0.5-0.2c0.3,0,0.6-0.2,0.7-0.4c0.1-0.2,0.3-0.3,0.5-0.3
	c0.2,0,0.4-0.1,0.7-0.1c0.3,0,0.7,0,1-0.2c0.3-0.1,0.6-0.1,0.9-0.4c0.1-0.1,0.2-0.1,0.3-0.1c0.5-0.1,1-0.1,1.4-0.2
	c1-0.1,1.9-0.1,2.8-0.4c0.7-0.2,1.4-0.2,2.2-0.1c0.4,0.1,0.7,0.1,1.1,0.1c0.2,0,0.4,0,0.5,0.1c0.6,0.3,1.2,0.3,1.8,0.3
	c0.8,0,1.5,0.1,2.3,0.3c0.1,0,0.3,0.1,0.4,0.1c0.5,0.4,1,0.5,1.5,0.5c0.4,0,0.9,0.1,1.2,0.1c0.3,0.1,0.4,0.2,0.5,0.4
	c0,0,0.1,0.1,0.2,0.1c0.4,0.1,0.8,0.3,1.2,0.3c0.3,0.1,0.6,0.1,0.8,0.3c0.1,0.1,0.2,0.1,0.3,0.1c0.4,0.1,0.8,0.2,1.2,0.3
	c0.1,0,0.3,0.1,0.4,0.2c0.2,0.3,0.5,0.4,0.8,0.4c0.4,0,0.8,0.2,1.2,0.2c0.1,0.1,0.2,0.2,0.2,0.3c0.1,0.2,0.3,0.3,0.4,0.3
	c0.6-0.1,1.1,0.3,1.6,0.6c0.3,0.1,0.6,0.3,0.9,0.4c0.1,0,0.2,0.1,0.3,0.2c0.1,0.3,0.4,0.4,0.6,0.4c0.3,0,0.6,0.1,0.8,0.4
	c0,0.1,0.2,0.1,0.3,0.2c0.2,0.1,0.5,0.2,0.7,0.2c0.4,0.1,0.9,0.1,1.1,0.6c0,0.1,0.2,0.2,0.4,0.2c0.3,0,0.5,0.2,0.7,0.4
	c0.1,0.2,0.3,0.2,0.5,0.2c0.2,0,0.4,0,0.5,0.2c0.1,0.4,0.4,0.4,0.8,0.5c0.4,0.1,0.7,0.2,1.1,0.3c0.1,0,0.2,0.1,0.2,0.2
	c0.1,0.2,0.3,0.3,0.5,0.4c0.1,0,0.1,0,0.2,0c0.2,0,0.3,0.1,0.4,0.3c0.1,0.2,0.3,0.3,0.5,0.4c0.1,0,0.1,0,0.2,0
	c0.2,0,0.3,0.2,0.4,0.4c0,0.2,0.2,0.3,0.4,0.3c0.2,0,0.4,0,0.5,0.1c0.1,0,0.2,0.1,0.2,0.2c0.1,0.2,0.3,0.4,0.5,0.4
	c0.1,0,0.2,0,0.3,0.1C121.7,226,122,226.6,121.8,227z M63.6,79.4c0,0.3,0.2,0.5,0.4,0.6c0.3,0.1,0.4,0.3,0.4,0.6c0,0.1,0,0.2,0,0.3
	c0,0.3,0.1,0.5,0.2,0.7c0.1,0.2,0.2,0.3,0.4,0.4c0.3,0.1,0.5,0.3,0.5,0.6c0,0.2,0.2,0.3,0.4,0.3c0.1,0,0.1,0,0.2,0
	c0.2,0,0.3,0.1,0.4,0.3c0.1,0.2,0.3,0.3,0.5,0.3c0.8,0.1,1.5,0,2.3-0.2c0.1,0,0.3-0.1,0.4-0.2c0.2-0.2,0.5-0.3,0.8-0.3
	c0.7,0,1.3-0.1,2-0.1c0.6-0.1,1.3,0,1.8-0.4c0.1-0.1,0.3-0.1,0.5-0.1c0.9-0.1,1.8-0.3,2.7-0.4c0.3,0,0.6-0.1,1-0.2
	c0.2-0.1,0.4-0.1,0.6-0.1c0.9,0,1.8-0.1,2.8-0.1c1.5,0,2.9-0.1,4.4-0.2c0.2,0,0.5,0,0.6-0.1c0.3-0.2,0.7-0.2,1.1-0.2
	c2.1-0.1,4.1-0.2,6.2-0.2c5,0,10-0.1,15-0.1c10.6,0,21.1,0,31.7,0c2.6,0,5.2,0,7.8,0c1.8,0,3.5,0,5.3,0.2c0.4,0,0.8,0.1,1.2,0.2
	c0.2,0.1,0.5,0.1,0.7,0.1c1.4,0.1,2.9,0.2,4.3,0.3c0.8,0,1.7,0.1,2.5,0.1c0.2,0,0.4,0,0.6,0.1c0.6,0.2,1.2,0.4,1.8,0.4
	c0.3,0,0.6,0,0.9,0.1c0.5,0.1,0.9,0.2,1.4,0.3c0.3,0.3,0.7,0.3,1.1,0.3c0.6,0.1,1.2,0.1,1.8,0.1c0.3,0,0.5,0.1,0.7,0.3
	c0.1,0.1,0.3,0.2,0.4,0.2c0.6,0.2,1.3,0.2,2,0.2c0.4,0,0.7-0.1,0.9-0.5c0-0.1,0.2-0.1,0.3-0.2c0.1,0,0.2,0,0.3-0.1
	c0.2,0,0.3-0.1,0.4-0.3c0-0.4,0.2-0.6,0.5-0.8c0.4-0.2,0.6-0.4,0.6-0.9c0-0.1,0-0.3,0.1-0.4c0.1-0.3,0.2-0.6,0.5-0.6
	c0.3-0.1,0.4-0.3,0.4-0.6c0.1-1.2,0.1-2.4,0.2-3.4c0-1.1-0.1-2.1-0.1-3c0-0.3-0.1-0.6-0.1-0.9c0-0.3-0.1-0.6-0.5-0.7
	c-0.2-0.1-0.4-0.2-0.4-0.5c0-0.3-0.1-0.5-0.1-0.8c0-0.2-0.2-0.4-0.3-0.6c-0.1,0-0.1-0.1-0.2-0.1c-0.4-0.1-0.5-0.4-0.6-0.7
	c0-0.2-0.2-0.3-0.4-0.3c-0.2,0-0.5,0-0.6-0.3c-0.1-0.4-0.4-0.5-0.9-0.5c-0.7,0-1.3,0-2,0.1c-0.2,0-0.4,0.1-0.6,0.3
	c-0.1,0.2-0.3,0.3-0.6,0.3c-0.4,0-0.7,0.1-1.1,0.1c-0.8,0.1-1.6,0.2-2.4,0.5c-0.3,0.1-0.6,0.2-0.9,0.2c-0.7,0.1-1.5,0.1-2.2,0.4
	c-0.4,0.2-0.8,0.2-1.3,0.2c-1.3,0-2.7,0.1-4,0.1c-1,0-1.9,0.1-2.9,0.2c-0.3,0-0.5,0-0.8,0.1c-0.7,0.3-1.3,0.3-2,0.4
	c-1.4,0-2.7,0.1-4.1,0.1c-4.1,0-8.2,0.1-12.4,0.1c-11.7,0-23.3,0-35,0c-3.6,0-7.3-0.1-10.9-0.1c-0.9,0-1.8-0.1-2.7-0.3
	c-0.6-0.1-1.2-0.2-1.7-0.2c-1.9-0.1-3.7-0.2-5.6-0.2c-0.5,0-1,0-1.4,0c-0.3,0-0.6-0.1-0.9-0.2c-0.5-0.2-1.1-0.3-1.6-0.4
	c-0.6-0.1-1.2-0.1-1.9-0.1c-0.2,0-0.4,0-0.6-0.1c-0.5-0.3-1-0.4-1.6-0.4c-0.7-0.1-1.4-0.2-2.1-0.2c-0.1,0-0.3-0.1-0.4-0.2
	c-0.3-0.3-0.6-0.3-1-0.4c-0.6-0.1-1.2-0.1-1.8-0.1c-0.4,0-0.7,0.1-0.8,0.5c-0.1,0.2-0.3,0.2-0.5,0.2c-0.2,0-0.4,0.2-0.5,0.4
	c-0.1,0.3-0.2,0.5-0.5,0.5c-0.3,0.1-0.4,0.3-0.5,0.5c-0.2,0.3-0.1,0.6-0.2,0.9c-0.1,0.3-0.2,0.5-0.4,0.6c-0.3,0.1-0.4,0.4-0.4,0.7
	c-0.1,0.9-0.1,1.8-0.2,2.7c0,0.6,0,1.2,0,1.8C63.4,77.4,63.5,78.4,63.6,79.4z M63.5,150.8c0,0.4,0,0.7,0.1,1.1
	c0.1,0.4,0.5,0.6,0.8,0.9c0.1,0.3,0.2,0.7,0.3,1c0.1,0.3,0.2,0.5,0.5,0.5c0.2,0.1,0.4,0.2,0.4,0.4c0.1,0.3,0.3,0.4,0.5,0.5
	c0,0,0.1,0,0.1,0c0.2,0,0.3,0.1,0.4,0.3c0.1,0.3,0.3,0.4,0.6,0.4c0.7,0,1.5,0,2.2-0.1c0.3,0,0.5-0.1,0.6-0.4
	c0.1-0.2,0.3-0.2,0.5-0.2c0.7-0.1,1.4-0.1,2.1-0.2c0.5-0.1,1.1-0.2,1.6-0.2c0.3-0.2,0.7-0.2,1.1-0.3c0.8-0.1,1.6-0.2,2.4-0.3
	c0.3,0,0.6-0.1,1-0.2c0.2-0.1,0.5-0.1,0.7-0.2c1-0.1,2-0.2,3-0.2c1.1,0,2.2,0,3.3-0.1c0.9-0.1,1.8-0.1,2.6-0.4
	c0.1-0.1,0.3-0.1,0.4-0.1c0.3,0,0.7,0,1,0c3.2-0.1,6.5-0.1,9.7-0.2c3.7,0,7.4-0.1,11.1-0.1c9.3,0,18.5,0,27.8,0
	c4.9,0,9.7,0.1,14.6,0.2c0.4,0,0.9,0,1.3,0c0.2,0,0.4,0,0.5,0.1c0.6,0.3,1.2,0.3,1.8,0.4c0.9,0.1,1.8,0.1,2.6,0.1
	c0.8,0,1.6,0.1,2.4,0.1c0.5,0,1,0.1,1.5,0.2c0.6,0.2,1.1,0.3,1.7,0.4c0.7,0.1,1.5,0.1,2.1,0.5c0.1,0,0.2,0,0.3,0.1
	c0.6,0.2,1.3,0.2,2,0.2c0.4,0,0.7,0.1,1.1,0.1c0.3,0,0.5,0.1,0.7,0.3c0.1,0.1,0.2,0.2,0.4,0.2c0.8,0.2,1.6,0.2,2.4,0.1
	c0.2,0,0.3-0.1,0.4-0.3c0.1-0.3,0.3-0.4,0.6-0.4c0.3,0,0.4-0.2,0.5-0.5c0-0.2,0.2-0.4,0.4-0.5c0.1,0,0.1-0.1,0.2-0.1
	c0.3-0.1,0.4-0.4,0.5-0.7c0-0.2,0.1-0.5,0.1-0.8c0-0.2,0.2-0.4,0.4-0.5c0.3-0.1,0.4-0.3,0.5-0.5c0-0.2,0.1-0.4,0.1-0.6
	c0.1-2,0.1-4,0-6.1c0-0.3-0.1-0.5-0.1-0.8c0-0.3-0.1-0.5-0.4-0.6c-0.2-0.1-0.4-0.2-0.4-0.5c-0.1-0.3-0.1-0.6-0.2-0.9
	c0-0.2-0.1-0.4-0.3-0.4c-0.5-0.1-0.7-0.4-0.8-0.8c0-0.3-0.2-0.4-0.5-0.5c-0.3,0-0.5-0.2-0.5-0.5c-0.1-0.1-0.2-0.2-0.3-0.3
	c-0.8-0.1-1.7-0.1-2.5,0.1c-0.1,0-0.2,0.1-0.3,0.2c-0.1,0.1-0.3,0.3-0.5,0.3c-0.3,0-0.7,0.1-1,0.1c-0.7,0.1-1.5,0-2.1,0.4
	c-0.1,0.1-0.2,0.1-0.3,0.1c-0.3,0-0.7,0-1,0.1c-0.6,0.1-1.3,0.1-1.9,0.5c-0.1,0.1-0.4,0.1-0.5,0.1c-1.1,0.1-2.1,0.2-3.2,0.2
	c-1,0.1-2.1,0.1-3.1,0.1c-0.7,0-1.5,0.1-2.2,0.3c-0.4,0.2-0.8,0.2-1.3,0.2c-2,0-3.9,0.1-5.9,0.1c-5.2,0-10.3,0-15.4,0
	c-9.2,0-18.5,0-27.7,0c-3.5,0-7.1,0-10.6,0c-1.9,0-3.7-0.1-5.6-0.1c-0.7,0-1.3,0-1.9-0.3c-0.1-0.1-0.3-0.1-0.4-0.1
	c-1.1-0.2-2.1-0.2-3.2-0.2c-1.2,0-2.4-0.1-3.6-0.2c-0.5-0.1-1-0.1-1.5-0.3c-0.2-0.1-0.4-0.1-0.5-0.1c-0.7-0.1-1.3-0.1-2-0.2
	c-0.6-0.1-1.2,0-1.7-0.4c-0.1-0.1-0.2-0.1-0.3-0.1c-0.4,0-0.7-0.1-1.1-0.1c-0.7-0.1-1.3-0.1-2-0.2c-0.2,0-0.4-0.1-0.5-0.2
	c-0.2-0.3-0.5-0.3-0.8-0.4c-0.7-0.1-1.4-0.1-2.1-0.1c-0.3,0-0.5,0.1-0.6,0.4c0,0.2-0.2,0.3-0.4,0.3c-0.4,0-0.6,0.2-0.7,0.6
	c0,0.1-0.2,0.2-0.3,0.3c-0.3,0.1-0.5,0.3-0.6,0.6c-0.1,0.3-0.1,0.6-0.2,0.9c-0.1,0.2-0.1,0.4-0.4,0.5c-0.1,0-0.1,0.1-0.2,0.1
	c-0.2,0.1-0.3,0.3-0.3,0.5c-0.1,0.8-0.1,1.7-0.2,2.5c-0.1,1-0.1,2,0,3C63.4,150,63.5,150.4,63.5,150.8z M176.9,107.4
	c-0.3-0.1-0.4-0.3-0.4-0.6c0-0.3,0-0.5-0.1-0.8c0-0.2-0.1-0.3-0.3-0.3c-0.6,0-0.7-0.4-0.8-0.8c0-0.2-0.1-0.4-0.3-0.5
	c-0.2,0-0.4-0.1-0.6-0.1c-0.2-0.1-0.4-0.2-0.6-0.2c-0.3,0-0.7-0.1-0.9-0.3c-0.1-0.1-0.3-0.1-0.4,0c-0.3,0.3-0.7,0.4-1.1,0.4
	c-0.3,0-0.7,0-1,0.1c-0.4,0.1-0.8,0.2-1.2,0.3c-0.6,0.5-1.3,0.4-1.9,0.5c-0.3,0.1-0.7,0.1-1,0.1c-0.2,0-0.4,0.1-0.5,0.1
	c-0.3,0.2-0.5,0.2-0.8,0.2c-1.1,0.1-2.1,0.2-3.2,0.3c-0.5,0-1,0.1-1.4,0.3c-0.6,0.2-1.3,0.3-1.9,0.3c-1.9,0-3.8,0.1-5.6,0.1
	c-0.7,0-1.5,0-2.2,0c-1.3,0-2.6,0.1-3.9,0.2c-0.4,0-0.9,0-1.3,0.2c-0.2,0.1-0.5,0.1-0.8,0.1c-0.8,0-1.5,0.1-2.3,0.1
	c-2.2,0-4.4,0-6.6,0c-8.1,0-16.2,0-24.3,0c-3.2,0-6.5,0-9.7,0c-0.7,0-1.4,0-2.1-0.1c-0.2,0-0.5,0-0.7-0.1c-0.5-0.2-1-0.2-1.5-0.2
	c-1.5-0.1-3-0.1-4.5-0.2c-1.6,0-3.2-0.1-4.7-0.1c-1.4,0-2.8-0.1-4.2-0.1c-0.8,0-1.6-0.1-2.4-0.4c-0.6-0.2-1.1-0.3-1.7-0.3
	c-1,0-1.9-0.1-2.9-0.2c-0.2,0-0.5,0-0.6-0.1c-0.3-0.2-0.7-0.2-1.1-0.2c-0.9-0.1-1.7-0.2-2.6-0.3c-0.2,0-0.4-0.1-0.6-0.2
	c-0.2-0.2-0.4-0.3-0.7-0.3c-0.3,0-0.6-0.1-0.9-0.1c-1-0.1-2-0.2-3-0.5c-0.2-0.1-0.4,0-0.6,0.2c-0.2,0.3-0.5,0.4-0.9,0.4
	c-0.1,0-0.1,0.1-0.2,0.1c-0.2,0.4-0.3,0.7-0.5,1c-0.8,0.3-0.8,0.2-0.9,1c0,0.2-0.1,0.4-0.1,0.6c-0.1,0.1-0.1,0.1-0.2,0.1
	c-0.4,0.1-0.5,0.4-0.6,0.7c0,0.6-0.1,1.1-0.1,1.7c-0.3,2,0,4,0.1,6.1c0,0.5,0.3,0.7,0.7,0.9c0,0,0,0,0.1,0.1
	c0.1,0.3,0.1,0.6,0.2,0.9c0.1,0.3,0.2,0.4,0.5,0.5c0.1,0,0.2,0.1,0.3,0.1c0.2,0.4,0.3,0.7,0.5,1.1c0.3,0.2,0.7,0.1,0.9,0.3
	c0.3,0.3,0.6,0.3,0.9,0.2c0.2,0,0.4,0,0.7-0.1c0.6-0.2,1.2-0.2,1.8-0.2c0.5,0,1-0.2,1.5-0.2c0.1,0,0.2-0.1,0.3-0.1
	c0.2-0.2,0.4-0.2,0.6-0.3c0.8-0.1,1.6-0.2,2.4-0.3c0.5,0,1.1,0,1.6-0.3c0.1-0.1,0.3-0.1,0.4-0.1c0.4,0,0.8-0.1,1.2-0.1
	c0.7-0.1,1.3-0.1,2-0.1c0.5,0,1-0.1,1.4-0.3c0.5-0.2,0.9-0.3,1.4-0.3c1.6,0,3.2-0.1,4.7-0.1c3.1,0,6.2-0.2,9.3-0.3
	c0.3,0,0.5,0,0.8-0.1c0.5-0.2,1.1-0.2,1.6-0.2c2,0,4,0,6-0.1c0.8,0,1.5,0,2.3,0c0.7,0,1.3,0,2,0c8.2,0,16.5,0,24.7,0
	c0.4,0,0.7,0,1.1,0c0.7,0,1.4,0.1,2.1,0.1c1.1,0,2.2,0,3.3,0c1.2,0,2.4,0.1,3.5,0.1c0.3,0,0.5,0,0.8,0.1c0.3,0.1,0.6,0.2,1,0.2
	c1,0,2,0,3,0.1c1.9,0.2,3.9,0.1,5.8,0.2c1.4,0,2.8,0.1,4.2,0.1c0.4,0,0.9,0,1.3,0.3c0.1,0.1,0.3,0.1,0.4,0.1
	c0.9,0.2,1.7,0.3,2.6,0.3c0.5,0,0.9,0.1,1.4,0.2c0.5,0.2,1.1,0.3,1.6,0.3c0.6,0,1.2,0.1,1.9,0.2c0.2,0,0.4,0.1,0.5,0.2
	c0.6,0.3,1.1,0.5,1.8,0.5c0.3,0,0.6,0,0.9,0c0.3,0,0.5,0,0.7,0.2c0.3,0.2,0.6,0.2,0.9,0.1c0.2,0,0.4,0,0.7-0.1
	c0.4-0.1,0.9-0.3,1.3-0.5c0.1-0.4,0.3-0.8,0.4-1.1c0.1,0,0.1-0.1,0.1-0.1c0.1,0,0.2-0.1,0.3-0.1c0.3,0,0.4-0.2,0.4-0.4
	c0-0.3,0.1-0.5,0.1-0.8c0-0.2,0.1-0.4,0.3-0.5c0.5-0.3,0.7-0.7,0.7-1.3c0-0.1,0-0.2,0-0.3c0.1-1.9,0.1-3.8,0-5.6
	c0-0.3,0-0.6-0.1-0.9C177.4,107.8,177.2,107.5,176.9,107.4z"/>
<path class="st0" d="M167.9,19.8c-3.1-0.5-5.6-1.3-7.6-2.5c-0.4-0.2-0.8-0.5-1.1-0.7c1.6-0.6,2.4-1,4.1-1.9c0.8,0,1-0.1,1-0.4
	c0-0.3-0.6-0.7-2.5-1.8c-0.4,0.6-0.7,1.1-1.1,1.6c-0.5,0.6-1.1,1.2-2,2.1c-1.3-1.1-2.4-2.5-3.1-4h11.7c0.2,0,0.3-0.1,0.3-0.2
	c0-0.2-0.2-0.4-0.7-0.9c-1.2-1-1.4-1.2-1.7-1.2c-0.2,0-0.5,0.2-1.7,1.8h-11.4V8.9h11.1c0.2,0,0.3-0.1,0.3-0.2c0-0.2-0.2-0.4-0.6-0.8
	c-1-0.8-1.2-1-1.5-1c-0.2,0-0.5,0.2-1.6,1.4h-7.7V5.8h11c0.2,0,0.3-0.1,0.3-0.2c0-0.2-0.2-0.4-0.6-0.8c-1-0.8-1.2-1-1.5-1
	c-0.2,0-0.5,0.2-1.6,1.4h-7.7V2.5h12.5c0.3,0,0.4-0.1,0.4-0.2c0-0.2-0.1-0.4-0.7-0.8c-1.2-0.8-1.4-1-1.6-1c-0.2,0-0.4,0.1-1.4,1.4
	h-8.7c-0.9-0.6-1.4-0.8-2.8-1.4c0.2,1.9,0.2,3.7,0.2,5.5v5.5h-2.1c-0.7,0-1.4,0-2.3-0.2l0.3,0.9c0.8-0.1,1.5-0.1,2.1-0.1h2v7.1
	c-0.5,0.1-1,0.1-1.5,0.2c-0.9,0.1-1.6,0.2-2.3,0.2c0.9,3,0.9,3,1.2,3c0.3,0,0.5-0.3,0.6-0.9c3.4-0.9,6.5-2.1,9.3-3.7
	c0.1,0,0-0.4-0.1-0.3c-1.3,0.4-3.1,0.8-4.9,1.2v-6.7h2.8c1.2,3.3,2.3,5.2,4.1,6.7c1.5,1.3,3.4,2.4,5.3,3c0.5,0.2,0.9,0.3,1.1,0.3
	c0.3,0,0.4-0.1,0.6-0.6c0.3-1,0.7-1.3,1.7-1.5C168,20.1,168,19.8,167.9,19.8z M178.6,3.7c0.3,1.2,0.6,1.5,1.2,1.5
	c0.7,0,1.3-0.6,1.3-1.4c0-1.3-1.2-2.3-3.7-2.9c-0.1,0-0.2,0.1-0.1,0.2C178,1.8,178.4,2.6,178.6,3.7z M183.8,3.2
	c0.3,1.3,0.5,1.6,1.2,1.6c0.8,0,1.4-0.6,1.4-1.4c0-1.3-1-2.3-3.7-3.1c-0.1,0-0.2,0.1-0.1,0.2C183.2,1.3,183.6,2.1,183.8,3.2z
	 M175,9.6c1.2,0,2.1-1.1,1.9-3.3h15.5c-0.2,1-0.5,1.7-0.8,2.4c0,0.1,0.1,0.3,0.2,0.2c0.7-0.4,1.5-0.9,2.1-1.4
	c0.3-0.2,0.4-0.3,0.8-0.3c1-0.1,1.1-0.1,1.1-0.5c0-0.2-0.1-0.4-0.7-0.9c-1.1-1.1-1.3-1.3-1.5-1.3c-0.2,0-0.4,0.1-1.4,1.2h-3.9
	c1.2-0.8,2.7-2,3.6-3.1c0.9,0,1.1-0.2,1.1-0.5c0-0.3-0.7-0.7-3-1.7c-0.2,0.6-0.5,1.4-0.9,2.1c-0.5,1.1-1.1,2.2-1.7,3.1h-10.7
	c0-0.4-0.1-0.8-0.3-1.2c0-0.1-0.2-0.1-0.3,0c-0.2,1.6-0.5,2-1.8,2.7c-0.6,0.3-0.8,0.6-0.8,1.2C173.7,9.1,174.3,9.6,175,9.6z
	 M196,18.2c-2-0.4-3.9-1.1-5.6-1.9c-2-1.1-3.7-2.4-4.8-4h8.9c0.2,0,0.3-0.1,0.3-0.2c0-0.2-0.2-0.4-0.8-0.8c-1.2-0.9-1.5-1.1-1.8-1.1
	c-0.2,0-0.5,0.2-1.6,1.6h-5.5V8.5c0.6-0.3,0.8-0.5,0.8-0.7c0-0.3-0.6-0.5-3.1-0.8c0.1,1,0.1,1.5,0.1,2.3v2.3h-6.8
	c-0.7,0-1.4,0-2.3-0.2l0.3,0.9c0.9-0.1,1.5-0.1,2.1-0.1h5.7c-2.1,3.5-4.9,6.1-8.8,8.4c-0.1,0,0,0.3,0.2,0.2c3.9-1.2,8-3.7,9.7-6
	c0,2.8-0.2,5.9-0.2,6.8c0,0.5,0.3,0.8,1,0.8c0.9,0,1.4-0.3,1.4-1c0-0.9,0-1.8,0-4.4v-4.6c0.9,1.9,2,3.5,3.4,4.8
	c1.3,1.2,2.7,2.1,4.2,2.9c0.4,0.2,0.8,0.3,0.9,0.3c0.2,0,0.3-0.1,0.4-0.4c0.5-1.1,0.8-1.5,1.7-1.8C196.1,18.4,196.1,18.2,196,18.2z
	 M223.9,3.4c-1-0.9-1.2-1-1.5-1c-0.2,0-0.4,0.1-1.2,1.1h-2.6v-2c0.5-0.3,0.7-0.5,0.7-0.7c0-0.2-0.2-0.4-3.1-0.7
	c0.1,0.6,0.1,1.2,0.1,1.8v1.6h-2.7c-0.1-0.4-0.2-0.7-0.3-1.1c0-0.1-0.2-0.1-0.3,0c-0.1,1.1-0.5,1.9-1.4,2.2
	c-0.6,0.2-0.8,0.5-0.8,1.1c0,0.7,0.4,1.1,1.1,1.1c0.3,0,0.5-0.1,0.7-0.2c0,1.3,0.1,2.6,0.1,3.9c0,7.5-0.1,9.4-0.1,11.2
	c0,0.6,0.3,0.9,1,0.9c0.9,0,1.3-0.3,1.3-1.1v-0.8h5.3v0.7c0,0.8,0.3,1,1,1c0.9,0,1.3-0.3,1.3-1.1c0-0.5-0.1-1.8-0.1-4.5v-0.9
	c0.6-0.5,0.6-0.5,0.6-0.7c0-0.2-0.1-0.4-0.6-0.7c-0.9-0.7-1.1-0.8-1.3-0.8c-0.2,0-0.4,0.1-1.3,1.1h-5.1v-3.2h4.6v0.1
	c0,0.7,0.2,1,1,1c0.9,0,1.3-0.3,1.3-1c0-0.4,0-1.6,0-3.3V7.9c0.5-0.3,0.6-0.4,0.6-0.6c0-0.2-0.1-0.4-0.5-0.7
	c-0.2-0.2-0.4-0.3-0.6-0.4c0.7-0.5,1.2-0.8,1.7-1.2c0.3-0.2,0.5-0.3,0.6-0.3c0.5,0,0.8-0.2,0.8-0.5C224.5,4,224.4,3.9,223.9,3.4z
	 M220.5,15.6v4.6h-5.3v-4.6H220.5z M219.7,11.3h-4.6V7.4h4.6V11.3z M221,6c-0.1-0.1-0.3-0.1-0.4-0.1c-0.2,0-0.4,0.1-1.1,1h-4.2
	c-0.6-0.4-1-0.6-1.7-1c0.2-0.5,0.3-1.1,0.2-1.7h7.7C221.4,4.7,221.2,5.3,221,6z M211.5,7.6c0-0.2-0.1-0.4-0.5-0.6
	c-0.8-0.6-1-0.7-1.2-0.7c-0.2,0-0.4,0.1-1.1,0.9h-0.5V5.4c0.4-0.2,0.6-0.4,0.6-0.5c0-0.2-0.2-0.4-2.8-0.6c0,0.4,0.1,0.9,0.1,1.4v1.5
	h-0.9c-0.8-0.5-1.1-0.6-1.8-0.9c1.6-1.1,3-2.5,4.1-4.1c0.6,0.6,1,1.1,1.4,2c0.6,1.2,0.6,1.3,1.1,1.3c0.5,0,1-0.5,1-1.2
	c0-1-0.9-1.7-3.2-2.4c0.6,0,0.9-0.1,0.9-0.4c0-0.2-0.3-0.4-2.9-1.5c-0.2,0.9-0.7,1.9-1.3,3c-0.9,1.4-2,2.9-3.3,4.3
	c-0.1,0.1,0.1,0.3,0.2,0.3c0.6-0.3,1.1-0.6,1.6-1c0.1,2.2,0.1,4.4,0.1,6.5v6.5c-0.5,0-1,0.1-1.5,0.1c0.8,2.4,1,2.9,1.3,2.9
	c0.3,0,0.4-0.2,0.5-0.8c2.7-1.1,3.7-1.6,5.6-2.7c0.1,0.4,0.3,0.8,0.4,1.2c0.2,0.7,0.4,1,0.9,1c0.8,0,1.3-0.7,1.3-1.6
	c0-1.6-1.7-3-4.2-3.8c-0.1,0-0.2,0.1-0.1,0.2c0.7,0.8,1.2,1.4,1.6,2.4c-1.1,0.4-2.3,0.7-3.5,0.9v-5h3.6v0.3c0,0.6,0.2,0.8,0.9,0.8
	c0.9,0,1.2-0.3,1.2-0.9c0-0.6,0-2.2,0-5.3v-1C211.4,7.9,211.5,7.8,211.5,7.6z M208.8,13.7h-3.6v-2.8h3.6V13.7z M208.8,10.3h-3.6V7.7
	h3.6V10.3z M33.8,10c-0.8-0.6-1-0.8-1.2-0.8c-0.1,0-0.3,0.1-1.2,1.1h-11c-0.5,0-0.9,0-1.5-0.1l0.2,0.6c0.5-0.1,1-0.1,1.4-0.1h3
	c-0.9,2.4-2.7,4.7-4.9,6.2c-0.1,0.1,0,0.2,0.1,0.2c1.3-0.4,2.5-1.2,3.7-2.2v1c0,2.1,0,2.4,0,2.9c0,0.3,0.2,0.5,0.7,0.5
	c0.6,0,1-0.1,1-0.7v-0.5h6.6v0.5c0,0.4,0.2,0.6,0.7,0.6c0.7,0,1-0.2,1-0.8c0-0.4-0.1-1.6-0.1-3.3v-0.6c0.4-0.3,0.5-0.4,0.5-0.6
	c0-0.1-0.1-0.3-0.4-0.5c-0.6-0.5-0.8-0.6-1-0.6c-0.1,0-0.3,0.1-1,0.9h-6.3c-0.2-0.1-0.3-0.1-0.4-0.2c0.7-0.8,1.3-1.7,1.7-2.8h8.7
	c0.2,0,0.2-0.1,0.2-0.2S34.2,10.3,33.8,10z M23.9,14h6.6v3.7H24c0-0.6,0-1.5,0-2.9V14z M20.3,8.4C20.3,8.7,20.5,9,21,9
	c0.7,0,1-0.2,1-0.7V8h9v0.4c0,0.4,0.2,0.6,0.7,0.6c0.7,0,1-0.2,1-0.7c0-0.3,0-1.2,0-2.5V5.1C32.9,5,33,4.9,33,4.7
	c0-0.3-0.2-0.3-2.2-0.5C30.9,4.8,31,5,31,5.7v1.9h-3.8V4.4c0.3-0.1,0.5-0.3,0.5-0.4c0-0.2-0.2-0.4-2.2-0.5c0.1,0.5,0.1,1,0.1,1.6
	v2.6H22V5.2c0.3-0.1,0.5-0.3,0.5-0.4c0-0.3-0.2-0.3-2.2-0.5c0.1,0.8,0.1,1.2,0.1,2.2C20.4,7.6,20.3,8.2,20.3,8.4z M53.1,12.4
	c-0.8-0.7-1-0.8-1.2-0.8c-0.1,0-0.3,0.1-1.2,1.2h-4.1c0-1,0-2,0-3.1h6c0.2,0,0.2-0.1,0.2-0.2S52.6,9.2,52.3,9
	c-0.8-0.6-1-0.8-1.1-0.8c-0.1,0-0.3,0.1-1.1,1.1h-3.4v-3C47.8,6,49,5.7,50.2,5.2c0.7,0.2,1,0,1-0.2c0-0.3-0.4-0.6-1.8-1.5
	c-0.2,0.2-0.5,0.4-0.9,0.6c-1.8,1-5.4,1.9-8.7,2.4c-0.1,0-0.1,0.2,0,0.2c1.6,0.1,3.4,0,5.1-0.3v2.7h-4.3c-0.4,0-0.8,0-1.4-0.1
	l0.2,0.6c0.5-0.1,0.8-0.1,1.2-0.1H45v3.1h-5.6c-0.4,0-0.7,0-1.2-0.1l0.2,0.6c0.4-0.1,0.7-0.1,1-0.1H45V17c0,0.2-0.1,0.2-0.2,0.2
	c-0.7,0-1.5-0.1-2.5-0.1c-0.1,0-0.1,0.2,0,0.2c1.2,0.3,1.7,0.6,1.8,1.1c0.2,0.6,0.2,0.7,0.5,0.7c0.5,0,1-0.1,1.4-0.3
	c0.5-0.3,0.7-0.6,0.7-1.3c0-0.6,0-2.3,0-4.3h6.8c0.2,0,0.2-0.1,0.2-0.2C53.6,12.9,53.5,12.7,53.1,12.4z M58.9,6.6
	c0.8,0,1.3-0.9,1.4-2.3c0-0.1-0.2-0.1-0.2-0.1c-0.2,0.4-0.5,0.8-1.1,1c-0.5,0.2-0.7,0.3-0.7,0.7C58.3,6.4,58.6,6.6,58.9,6.6z
	 M65.5,6.5c0.7,0,1.3-0.9,1.3-2.3c0-0.1-0.2-0.1-0.2,0c-0.2,0.5-0.4,0.7-1,1c-0.6,0.3-0.7,0.4-0.7,0.8C64.9,6.3,65.1,6.5,65.5,6.5z
	 M64.9,7.7c-0.1,0,0,0.2,0.1,0.2c1.7-0.3,2.7-0.8,3.3-1.5c0.6,0.2,1,0.5,1.3,0.8c0.6,0.6,0.7,0.7,1,0.7c0.4,0,0.6-0.3,0.6-0.6
	c0-0.8-1.3-1.2-2.7-1.1c0.1-0.2,0.2-0.3,0.2-0.5c0.9-0.1,1.7-0.3,2.4-0.6c0.5,0.1,0.7,0,0.7-0.1c0-0.1-0.4-0.5-1.1-1
	c-0.2,0.2-0.3,0.4-0.8,0.7c-0.3,0.2-0.6,0.4-1.1,0.7C68.9,5,69,4.7,69,4.4c0.4-0.2,0.5-0.3,0.5-0.4c0-0.2-0.4-0.3-2-0.6
	c0,0.3,0,0.5,0,0.7c0,1-0.1,1.5-0.5,2.1C66.6,6.9,66.3,7.1,64.9,7.7z M72.5,8.4c-0.7-0.6-0.9-0.7-1-0.7c-0.1,0-0.3,0.1-0.8,0.7H59.4
	c0-0.1-0.1-0.3-0.1-0.4c1-0.3,1.9-0.7,2.4-1.5c0.5,0.2,0.9,0.5,1.4,1.2C63.5,7.9,63.6,8,63.8,8c0.4,0,0.6-0.3,0.6-0.6
	c0-0.7-0.8-1.1-2.6-1.1c0.1-0.2,0.2-0.4,0.3-0.6c0.8-0.1,1.5-0.3,2.1-0.5C64.8,5.2,65,5.1,65,4.9c0-0.1-0.2-0.3-1.1-1
	c-0.2,0.3-0.4,0.5-0.7,0.7c-0.3,0.2-0.5,0.4-0.9,0.7c0.1-0.3,0.2-0.6,0.2-1C62.9,4.2,63,4.1,63,4c0-0.2-0.4-0.4-2-0.6
	c0,0.3,0,0.5,0,0.6c0,0.9-0.1,1.5-0.4,2.1C60.2,7,59.4,7.6,58,8c-0.1,0,0,0.2,0.1,0.2c0.4-0.1,0.7-0.1,1-0.2c-0.1,0.6-0.4,1-0.9,1.2
	c-0.8,0.3-0.9,0.4-0.9,0.9c0,0.4,0.3,0.8,0.8,0.8c0.9,0,1.4-1,1.4-2.1h4.5c0,0.2-0.1,0.4-0.1,0.6c-0.1,0.3-0.2,0.5-0.3,0.7h-1.6
	c-0.6-0.3-0.9-0.4-1.6-0.7c0.1,1.1,0.1,2.3,0.1,3.4c0,2-0.1,2.5-0.1,3c0,0.4,0.2,0.5,0.6,0.5c0.6,0,0.9-0.2,0.9-0.5h8.7
	c-0.1,0.9-0.2,1.5-0.4,1.8c-0.1,0.2-0.3,0.3-0.4,0.3c-0.4,0-0.7,0-1.1-0.1c0.1-0.1,0.1-0.2,0.1-0.4c0-0.6-0.6-1-1.8-1.2
	c-0.1,0-0.1,0.1-0.1,0.1c0.3,0.3,0.5,0.7,0.7,1.2c0.2,0.5,0.3,0.6,0.6,0.6c0.2,0,0.3-0.1,0.4-0.2c0.7,0.2,0.9,0.6,1,1.1
	c0,0.2,0.1,0.2,0.3,0.2c0.4,0,0.7-0.1,1-0.2c0.2-0.1,0.4-0.3,0.6-0.5c0.4-0.5,0.6-1.3,0.8-2.4c0.4-0.3,0.5-0.3,0.5-0.5
	c0-0.1-0.1-0.3-0.3-0.5c-0.5-0.5-0.7-0.6-0.9-0.6c-0.1,0-0.3,0.1-0.8,0.7h-8.6v-0.9h10.3c0.2,0,0.2-0.1,0.2-0.2
	c0-0.1-0.1-0.3-0.4-0.5c-0.6-0.5-0.8-0.7-1-0.7c-0.1,0-0.3,0.1-1,0.9h-8.1v-0.9h6.3c0,0.3,0.2,0.4,0.6,0.4c0.6,0,0.9-0.2,0.9-0.6
	c0-0.2-0.1-0.9-0.1-1.8v-0.4c0.3-0.2,0.4-0.3,0.4-0.4s-0.1-0.3-0.3-0.4c-0.5-0.4-0.7-0.5-0.9-0.5c-0.1,0-0.3,0.1-0.8,0.6h-3.7
	c0.4-0.2,0.7-0.4,0.8-0.5c0.4,0,0.6-0.1,0.6-0.3c0-0.2-0.3-0.3-1.2-0.5h6.4c-0.1,0.6-0.1,0.7-0.3,1.4c0,0.1,0.1,0.1,0.1,0.1
	c0.4-0.2,0.9-0.5,1.2-0.8c0.2-0.2,0.2-0.2,0.5-0.2c0.3,0,0.5-0.1,0.5-0.4C72.9,8.8,72.8,8.7,72.5,8.4z M68.1,12.8h-6.3v-1h6.3V12.8z
	 M68.1,10.5v0.9h-6.3v-0.9H68.1z M59.9,16.1c-0.1,0.8-0.4,1.2-1.2,1.4c-0.5,0.2-0.7,0.4-0.7,0.8c0,0.5,0.3,0.8,0.8,0.8
	c1,0,1.4-0.9,1.4-1.9c0-0.4-0.1-0.7-0.2-1.1C60,16,59.9,16,59.9,16.1z M61.6,16.5c-0.1,0-0.1,0-0.1,0.1c0.2,0.5,0.3,0.8,0.3,1.4
	c0,0.8,0.1,1,0.6,1c0.5,0,0.8-0.4,0.8-0.8C63.3,17.5,62.8,17,61.6,16.5z M64.1,16.3c-0.1,0-0.1,0.1-0.1,0.1c0.3,0.3,0.5,0.7,0.6,1.4
	c0.1,0.6,0.2,0.8,0.6,0.8c0.4,0,0.8-0.4,0.8-0.8C66.1,17.1,65.5,16.7,64.1,16.3z M91.8,5.7c-1-0.8-1.1-0.9-1.3-0.9
	c-0.1,0-0.3,0.1-0.9,0.8h-4.4V4.4c0.3-0.1,0.5-0.2,0.5-0.4c0-0.2-0.2-0.4-2.2-0.5c0,0.4,0,0.7,0,1v1.2H79c0-0.3-0.1-0.5-0.1-0.8
	c0-0.1-0.2-0.1-0.2,0c0,0.9-0.3,1.4-1.1,1.8c-0.5,0.2-0.6,0.5-0.6,0.9c0,0.5,0.3,0.9,0.8,0.9c0.9,0,1.4-0.9,1.3-2.4h10.8
	c-0.1,0.6-0.2,0.9-0.3,1.2c0,0.1,0,0.1,0.1,0.1c0.5-0.2,0.8-0.3,1.1-0.4c0.3-0.1,0.3-0.2,0.9-0.2c0.4,0,0.7-0.1,0.7-0.3
	C92.4,6.2,92.3,6.1,91.8,5.7z M91,7.8c-0.6-0.5-0.8-0.6-1-0.6c-0.1,0-0.3,0.1-1,0.9h-5.7c-0.3,0-0.7,0-1.1-0.1l0.2,0.6
	c0.4-0.1,0.6-0.1,0.9-0.1h2.5c0,0.8-0.1,1.6-0.3,2.3h-1.2c-0.8-0.5-0.9-0.5-1.7-0.8c0.1,1,0.1,2.1,0.1,3.1c0,3.7-0.1,4.6-0.1,5.5
	c0,0.3,0.2,0.5,0.7,0.5c0.6,0,0.9-0.2,0.9-0.7V18H89v0.3c0,0.5,0.2,0.7,0.7,0.7c0.6,0,0.9-0.3,0.9-0.7c0-0.6-0.1-2.6-0.1-5.5v-1.1
	c0.4-0.3,0.5-0.4,0.5-0.5c0-0.1-0.1-0.3-0.4-0.5c-0.6-0.5-0.8-0.6-0.9-0.6c-0.1,0-0.3,0.1-0.9,0.8h-2.7c0.6-0.7,1.1-1.5,1.5-2.3h3.5
	c0.2,0,0.2-0.1,0.2-0.2S91.3,8.1,91,7.8z M89,17.7h-4.8v-3.2H89V17.7z M89,11.2V14h-4.8v-2.8H89z M80.1,6.7
	c-0.1,0.6-0.2,1.2-0.5,1.9c-0.6,1.7-1.8,3.6-3,4.8c-0.1,0.1,0.1,0.2,0.2,0.2c0.8-0.5,1.5-1,2.1-1.7v2.2c0,2.7-0.1,4.1-0.1,4.5
	c0,0.5,0.2,0.6,0.8,0.6c0.6,0,0.9-0.2,0.9-0.7v-6.9c0.4-0.2,0.5-0.3,0.5-0.4c0-0.2-0.1-0.2-1-0.4c0.6-0.8,1.2-1.7,1.6-2.7
	C82.1,8,82.2,8,82.2,7.7C82.2,7.5,82,7.4,80.1,6.7z M98.6,13.9c0.7-1.9,1.5-3.9,2.2-5.8c0-0.1-0.2-0.2-0.2-0.1
	c-1.3,2.8-2.7,5.4-3,5.9c-0.3,0.3-0.5,0.5-0.9,0.5c-0.1,0-0.2,0-0.7-0.1c-0.1,0-0.1,0.2,0,0.3c1.2,0.4,1.3,0.6,1.3,1.7
	c0,0.6-0.1,1.1-0.1,1.7c0,0.6,0.3,0.9,0.8,0.9c0.6,0,1.1-0.5,1.1-1.2c0-0.9-0.7-1.6-0.7-2.5C98.3,14.8,98.4,14.3,98.6,13.9z
	 M111.2,17c-0.1,0-0.3,0.1-0.7,1h-0.1v-4.6c0.4-0.2,0.5-0.3,0.5-0.5c0-0.1-0.1-0.3-0.4-0.5c-0.6-0.5-0.7-0.6-0.9-0.6
	c-0.1,0-0.3,0.1-0.9,0.7h-6.6c-0.8-0.4-0.9-0.5-1.6-0.9c0.1,1.1,0.1,2.2,0.1,3.2V18c-0.4,0-0.8-0.1-1.2-0.1l0.2,0.6
	c0.5-0.1,0.9-0.1,1.2-0.1H112c0.2,0,0.2-0.1,0.2-0.2c0-0.1-0.1-0.3-0.3-0.5C111.4,17.2,111.3,17,111.2,17z M103.4,18H102v-5.1h1.4
	V18z M106.1,18h-1.3v-5.1h1.3V18z M108.9,18h-1.4v-5.1h1.4V18z M97.2,9.4c0.4,0.9,0.5,0.9,0.9,0.9c0.5,0,0.9-0.4,0.9-0.9
	c0-0.9-1.1-1.5-2.9-1.6c-0.1,0-0.1,0.1-0.1,0.1C96.7,8.5,96.9,8.7,97.2,9.4z M102.3,11c0.6,0,0.9-0.2,0.9-0.7v-0.1h4.6v0.1
	c0,0.4,0.2,0.6,0.7,0.6c0.5,0,0.9-0.2,0.9-0.6c0-0.5-0.1-2-0.1-4V5.5c0.4-0.3,0.5-0.4,0.5-0.5c0-0.1-0.1-0.3-0.4-0.5
	c-0.6-0.5-0.8-0.6-0.9-0.6c-0.1,0-0.3,0.1-0.9,0.8h-4.3c-0.8-0.5-0.9-0.5-1.7-0.8c0.1,0.9,0.1,1.9,0.1,2.8c0,2.7-0.1,3.3-0.1,3.9
	C101.6,10.9,101.8,11,102.3,11z M103.2,5.1h4.6v2.2h-4.6V5.1z M103.2,7.6h4.6v2.3h-4.6V7.6z M98.5,5.6c0.4,0.9,0.5,1,0.9,1
	c0.5,0,0.9-0.4,0.9-0.9c0-1-1-1.5-3.1-1.8c-0.1,0-0.1,0.1-0.1,0.2C97.9,4.6,98.2,4.9,98.5,5.6z M122,13.4c0-0.1-0.1-0.3-0.4-0.5
	c-0.6-0.6-0.8-0.7-0.9-0.7c-0.1,0-0.3,0.1-0.9,0.8h-2.4c-0.4,0-0.7,0-1.2-0.1l0.2,0.7c0.4-0.1,0.7-0.1,1-0.1h2.4
	c-0.8,1.9-2.2,3.5-4.6,4.9c-0.1,0.1,0,0.3,0.1,0.2c2.9-0.9,4.9-2.5,6.1-4.7C121.8,13.7,122,13.6,122,13.4z M131.2,16.5
	c-2.1-0.4-3.8-1.2-5-2.4c1-0.4,1.6-0.7,3.2-1.6c0.7,0,0.8-0.1,0.8-0.3c0-0.2-0.5-0.7-1.6-1.4c-0.2,0.4-0.6,0.8-1,1.2
	c-0.5,0.5-1.1,1.1-1.8,1.7c-0.8-0.9-1.3-1.9-1.7-3h2.5c0,0.4,0.2,0.5,0.7,0.5c0.6,0,1-0.2,1-0.6c0-0.4-0.1-1.8-0.1-3.7V6.3
	c0.5-0.4,0.5-0.4,0.5-0.5c0-0.1-0.1-0.3-0.4-0.5c-0.6-0.5-0.8-0.6-1-0.6c-0.1,0-0.3,0.1-0.9,0.8h-4c0.3-0.2,0.5-0.4,1.1-1
	c0.5-0.1,0.7-0.2,0.7-0.4c0-0.2-0.3-0.4-2.1-0.7c0,0.4-0.1,0.7-0.1,1c-0.1,0.3-0.2,0.7-0.3,1h-2.1c-0.8-0.5-1-0.5-1.8-0.9
	c0.1,1.1,0.1,1.6,0.1,2.8c0,2.1-0.1,3.3-0.1,3.9c0,0.3,0.2,0.5,0.6,0.5c0.7,0,1-0.2,1-0.6v-0.2h2.8v6.4c0,0.2-0.1,0.2-0.3,0.2
	c-0.7,0-1.4,0-2.3-0.1c-0.1,0-0.1,0.2,0,0.3c1.3,0.3,1.7,0.5,1.9,1.1c0.1,0.4,0.2,0.5,0.4,0.5c0.6,0,1.1-0.2,1.5-0.5
	c0.3-0.3,0.4-0.6,0.4-1c0-0.7-0.1-2.9-0.2-6.7c0.6,1.9,1,3,1.7,3.9c0.8,1.2,2.1,2.3,3.4,3c0.3,0.2,0.6,0.3,0.7,0.3
	c0.2,0,0.2-0.1,0.4-0.4c0.4-0.7,0.7-1.1,1.3-1.2C131.3,16.7,131.3,16.6,131.2,16.5z M119.6,5.8h7.1v2h-7.1V5.8z M119.6,10.4V8.3h7.1
	v2.2H119.6z"/>
</svg>
