<?xml version="1.0" encoding="utf-8"?>
<!-- Generator: Adobe Illustrator 25.2.1, SVG Export Plug-In . SVG Version: 6.00 Build 0)  -->
<svg version="1.1" id="レイヤー_1" xmlns="http://www.w3.org/2000/svg" xmlns:xlink="http://www.w3.org/1999/xlink" x="0px"
	 y="0px" width="21px" height="21px" viewBox="0 0 21 21" style="enable-background:new 0 0 21 21;" xml:space="preserve">
<style type="text/css">
	.st0{fill:#FFFFFF;}
</style>
<circle cx="10.5" cy="10.5" r="10.5"/>
<path class="st0" d="M16.4,7.1c-3.2-3.2-8.5-3.2-11.7,0c-0.2,0.2-0.2,0.5,0,0.7L5.8,9C6,9.2,6.3,9.2,6.5,9C7,8.6,7.4,8.3,8,8
	c0.2-0.1,0.3-0.2,0.3-0.4V6.1c1.5-0.5,3.1-0.5,4.5,0v1.5c0,0.2,0.1,0.4,0.3,0.4c0.5,0.3,1,0.6,1.4,1c0.2,0.2,0.5,0.2,0.7,0l1.2-1.2
	C16.5,7.6,16.6,7.3,16.4,7.1z M7,16.3h1.5v-1.5H7V16.3z M7,13.7h1.5v-1.5H7V13.7z M7,11.2h1.5V9.7H7V11.2z M12.5,16.3H14v-1.5h-1.5
	V16.3z M12.5,13.7H14v-1.5h-1.5V13.7z M12.5,11.2H14V9.7h-1.5V11.2z M9.8,16.3h1.5v-1.5H9.8V16.3z M9.8,13.7h1.5v-1.5H9.8V13.7z
	 M9.8,11.2h1.5V9.7H9.8V11.2z"/>
</svg>
